<?xml version="1.0" encoding="utf-8"?>
<!-- Generator: Adobe Illustrator 16.0.0, SVG Export Plug-In . SVG Version: 6.00 Build 0)  -->
<!DOCTYPE svg PUBLIC "-//W3C//DTD SVG 1.1//EN" "http://www.w3.org/Graphics/SVG/1.1/DTD/svg11.dtd">
<svg version="1.1" id="Layer_1" xmlns="http://www.w3.org/2000/svg" xmlns:xlink="http://www.w3.org/1999/xlink" x="0px" y="0px"
	 width="490.857px" height="800px" viewBox="0 0 490.857 800" enable-background="new 0 0 490.857 800" xml:space="preserve">
<g>
	<path fill="#FF6A81" d="M298.694,10.058c-47.952-16.169-117.153,1.542-146.047,72.887c-32.31,79.783,21.003,158.729,70.982,168.424
		c57.122,11.081,116.425-39.066,132.806-100.382C373.437,87.344,348.889,26.983,298.694,10.058z"/>
	<g id="XMLID_2_">
		<g>
			<path fill="#DF4668" d="M197.852,261.025c4.649-0.956,19.846,3.768,20.967,15.932c-0.35,0.386-0.68,0.699-0.992,0.901
				c-4.411,2.903-19.753-9.813-20.213-14.958C197.558,262.275,197.65,261.65,197.852,261.025z"/>
			<path fill="#FF5575" d="M219.866,245.552c3.254-1.58,8.932,0.479,8.856,6.707c-0.054,4.631-5.879,20.214-9.904,24.698
				c-1.121-12.165-16.317-16.888-20.967-15.932C200.26,253.362,219.866,245.552,219.866,245.552z"/>
		</g>
	</g>
	<path fill="#FFFFFF" d="M215.59,35.235c-6.896-5.93-19.532,2.527-29.8,13.756c-10.269,11.229-14.927,27.092-6.485,30.054
		c5.414,1.899,9.429-10.617,17.431-18.832C208.633,47.999,219.958,38.992,215.59,35.235z"/>
	<path fill="#FFFFFF" d="M235.051,19.876c-3.967-3.737-17.548,4.057-12.824,11.627S241.661,26.105,235.051,19.876z"/>
	<path d="M299.931,126.289c0.519-2.319,0.493-5.546-0.058-7.419c-0.596-1.853-1.791-3.538-3.327-4.642
		c-1.536-1.127-3.256-1.734-5.125-1.801c-0.309-0.011-0.616,0.143-0.786,0.428c-0.251,0.417-0.115,0.959,0.301,1.21l0.132,0.079
		c1.229,0.738,2.466,1.594,3.359,2.563c0.752,0.812,1.283,1.709,1.678,2.673c-0.341-0.23-0.713-0.412-1.111-0.538
		c-3.214-1.012-7.011,1.952-8.482,6.621c-1.47,4.668-0.007,9.125,3.158,10.286C294.346,137.465,298.32,133.46,299.931,126.289z"/>
	<path d="M238.244,105.915c0.505-2.322,0.46-5.548-0.104-7.418c-0.608-1.849-1.814-3.526-3.357-4.62
		c-1.544-1.116-3.269-1.713-5.138-1.767c-0.309-0.009-0.614,0.146-0.784,0.433c-0.248,0.419-0.11,0.96,0.31,1.208l0.132,0.077
		c1.234,0.73,2.477,1.577,3.375,2.542c0.758,0.807,1.294,1.7,1.696,2.661c-0.343-0.227-0.715-0.406-1.114-0.529
		c-3.22-0.992-6.999,1.997-8.438,6.676c-1.439,4.678,0.054,9.126,3.225,10.266C232.735,117.128,236.684,113.098,238.244,105.915z"/>
	<g id="XMLID_1_">
		<g>
			<path fill="#FFA4BA" d="M247.726,146.946c15.381,4.797,16.023,13.764,16.023,13.764c-4.706,0.937-10.254,0.919-16.704-0.533
				c-10.659-2.407-17.787-7.35-22.198-12.955C224.847,147.222,235.836,143.216,247.726,146.946z"/>
			<path d="M280.985,134.818c5.403,6.395-0.147,22.511-17.236,25.892c0,0-0.643-8.967-16.023-13.764
				c-11.89-3.73-22.879,0.276-22.879,0.276c-8.03-10.144-7.168-22.438-2.297-25.672c4.611-3.051,9.482-1.893,14.314,0.57
				c0,0-4.226,11.687,3.62,16.428c6.837,4.134,10.916-4.54,11.871-6.873c-0.81,2.278-3.252,10.896,5.145,13.046
				c9.723,2.5,11.008-11.944,11.008-11.944l-0.036-0.367C273.838,131.822,277.843,131.087,280.985,134.818z"/>
			<path fill="#FFFFFF" d="M253.9,131.547c5.75,1.672,10.546,1.305,14.571,0.864l0.036,0.367c0,0-1.285,14.444-11.008,11.944
				c-8.396-2.15-5.954-10.768-5.145-13.046c0.037-0.092,0.073-0.184,0.091-0.239c0.056-0.11,0.076-0.202,0.094-0.257
				c0.018-0.019,0.018-0.037,0.018-0.037s0,0,0-0.019c0.019-0.018,0.019-0.018,0.019-0.018v-0.019
				C253.018,131.271,253.459,131.418,253.9,131.547z"/>
			<path fill="#FFFFFF" d="M252.576,131.087v0.019c0,0,0,0-0.019,0.018c0,0.019,0,0.019,0,0.019s0,0.018-0.018,0.037
				c-0.018,0.055-0.038,0.146-0.094,0.257c-0.018,0.056-0.054,0.147-0.091,0.239c-0.955,2.333-5.034,11.007-11.871,6.873
				c-7.846-4.741-3.62-16.428-3.62-16.428C242.268,124.839,247.634,129.213,252.576,131.087z"/>
		</g>
	</g>
	<path d="M212.849,246.588c1.646-0.418,3.259-0.464,4.898-0.325c1.637,0.138,3.263,0.514,4.838,1.124
		c1.558,0.652,3.067,1.537,4.336,2.732c1.262,1.212,2.218,2.753,2.676,4.396c0.131,0.475-0.146,0.966-0.619,1.099
		c-0.323,0.089-0.651-0.009-0.872-0.229l-0.066-0.067c-1.046-1.047-2.031-1.938-3.156-2.685c-1.156-0.706-2.358-1.328-3.65-1.835
		c-2.588-1.015-5.436-1.682-8.334-2.459l-0.064-0.018c-0.478-0.128-0.761-0.62-0.632-1.098
		C212.288,246.9,212.543,246.665,212.849,246.588z"/>
	<path d="M218.537,248.707c-0.212,0-0.418-0.073-0.585-0.209c-0.295-0.244-7.218-6.021-3.938-10.298
		c1.245-1.625,2.505-1.024,2.864-0.8c2.279,1.423,3.428,8.898,2.479,10.799c-0.125,0.25-0.356,0.431-0.631,0.489
		C218.666,248.7,218.602,248.707,218.537,248.707z M215.863,238.936c0.003,0.005-0.144,0.058-0.392,0.381
		c-1.507,1.966,0.812,4.92,2.387,6.559c-0.043-1.624-0.435-4.122-1.213-5.829C216.267,239.212,215.949,238.96,215.863,238.936z"/>
	<path d="M219.311,248.825c-0.201,0-0.4-0.013-0.602-0.041c-0.262-0.037-0.495-0.184-0.641-0.406
		c-0.146-0.221-0.188-0.494-0.116-0.749c0.427-1.548,2.708-9.331,5.721-10.497c0.718-0.279,1.448-0.207,2.11,0.211
		c1.444,0.914,1.813,2.81,0.983,5.075C225.582,245.648,222.392,248.825,219.311,248.825z M224.53,238.805
		c-0.061,0-0.125,0.015-0.193,0.042c-1.41,0.544-3.196,4.688-4.253,8.045c2.006-0.498,4.124-2.831,4.956-5.105
		c0.19-0.521,0.739-2.271-0.24-2.888C224.703,238.835,224.618,238.805,224.53,238.805z"/>
	<path d="M226.062,250.662c15.955,6.869,27.982,21.319,33.24,37.724c1.358,4.103,2.295,8.303,2.979,12.57
		c0.629,4.322,0.522,8.684,0.076,12.96c-0.454,4.281-1.228,8.511-2.254,12.662c-0.998,4.156-2.14,8.274-3.438,12.332l-7.627,24.341
		c-2.494,8.087-5.262,16.054-6.898,24.214c-0.773,4.073-1.238,8.211-0.902,12.263c0.307,4.038,1.408,7.982,3.583,11.3
		c0.539,0.829,1.21,1.568,1.802,2.363c0.679,0.724,1.427,1.389,2.133,2.093c1.503,1.269,3.208,2.402,4.813,2.698
		c0.782,0.087,1.446-0.014,2.014-0.389c0.574-0.379,1.016-1.118,1.342-1.928c0.621-1.682,0.711-3.715,0.409-5.644
		c-0.298-1.935-0.94-3.854-2.004-5.452c-1.075-1.572-2.581-2.812-4.374-3.187c-1.802-0.359-3.743,0.146-5.515,1.021
		c-1.803,0.849-3.392,2.2-4.906,3.573c-2.966,2.826-5.059,6.436-6.164,10.293c-1.145,3.858-1.521,7.943-1.432,12.06
		c0.152,8.261,1.974,16.561,3.966,24.763c1.999,8.223,4.319,16.41,6.252,24.713c0.953,4.154,1.843,8.33,2.637,12.535
		c0.367,2.106,0.742,4.216,1.063,6.337c0.366,2.111,0.431,4.29,0.65,6.438c0.696,8.617-0.287,17.433-2.954,25.696
		c-5.264,16.583-16.248,30.991-30.354,40.81c-0.31,0.217-0.739,0.14-0.954-0.171c-0.208-0.301-0.144-0.71,0.142-0.933l0.05-0.04
		c6.606-5.114,12.327-11.439,17.18-18.222c4.752-6.876,8.519-14.412,10.909-22.372c4.639-16.006,3.572-33.144-0.639-49.541
		c-1.979-8.222-4.342-16.367-6.56-24.594c-2.145-8.231-4.246-16.596-4.591-25.348c-0.17-4.359,0.365-8.848,1.887-13.061
		c1.543-4.218,4.307-7.891,7.535-10.855c1.69-1.391,3.363-2.834,5.403-3.837c1.997-1.009,4.362-1.664,6.778-1.256
		c2.422,0.422,4.465,2.037,5.814,3.909c1.353,1.902,2.153,4.086,2.575,6.322c0.407,2.239,0.439,4.587-0.327,6.934
		c-0.422,1.149-1.028,2.365-2.202,3.245c-1.173,0.894-2.726,1.121-4.037,0.945c-2.609-0.48-4.51-1.884-6.256-3.287
		c-0.812-0.779-1.658-1.525-2.434-2.342c-0.692-0.891-1.457-1.735-2.082-2.676c-2.537-3.783-3.804-8.266-4.174-12.663
		c-0.355-4.42-0.015-8.804,0.639-13.09c1.398-8.566,3.95-16.795,6.995-24.744c3.055-7.953,6.403-15.754,8.989-23.815
		c2.559-8.046,4.788-16.252,5.497-24.606c0.373-4.163,0.386-8.363-0.282-12.443c-0.317-2.048-0.856-4.089-1.255-6.137
		c-0.183-1.033-0.484-2.033-0.804-3.027l-0.919-2.996c-2.645-7.905-6.559-15.438-12.02-21.771c-2.624-3.247-5.674-6.139-8.935-8.749
		c-3.261-2.582-6.796-4.976-10.551-6.656l-0.061-0.027c-0.347-0.155-0.503-0.561-0.349-0.907
		C225.316,250.668,225.719,250.513,226.062,250.662z"/>
	<circle fill="#FFA4BA" cx="197.601" cy="117.204" r="18.948"/>
	<circle fill="#FFA4BA" cx="304.884" cy="156.997" r="18.948"/>
	<path opacity="0.21" fill="#A9206B" d="M344.331,153.354c-12.846-5-21.836,38.674-82.668,48.132
		c-38.772,6.028-71.9-27.099-86.731-14.917c-14.831,12.181,22.551,61.422,72.657,57.849
		C311.254,239.878,358.034,158.688,344.331,153.354z"/>
</g>
<g>
	<path fill="#00D8D3" d="M111.35,266.513c-2.739,1.794-7.708,7.708-2.249,11.561c5.46,3.854,11.24-0.642,10.919-5.78
		C119.699,267.155,113.997,264.778,111.35,266.513z"/>
	<path fill="#9578F0" d="M104.231,182.337c-1.926,0-8.67,12.845-7.707,15.093c0.963,2.249,16.451,21.588,32.435,19.589
		c2.569-0.321,9.955-16.233,9.634-17.269c-0.321-1.035-13.802-2.076-21.076-5.531C108.728,190.044,104.231,182.337,104.231,182.337z
		"/>
	<path fill="#FFD500" d="M154.861,333.649c-3.984,2.085-4.818,21.838-4.818,21.838s-20.874,5.138-20.874,6.744
		c0,1.605,18.305,14.772,18.305,14.772s-3.211,23.442-0.963,24.727c2.248,1.285,19.589-16.698,19.589-16.698
		s19.91,8.35,21.195,6.583c1.284-1.767-8.993-23.913-8.993-23.913s9.132-18.637,6.716-20.724
		c-1.507-1.301-19.238,2.619-19.238,2.619S156.764,332.653,154.861,333.649z"/>
	<g>
		<path fill="#FF8B4B" d="M79.252,57.827c-0.768-2.077-0.941-4.154-0.959-6.231c0.036-2.078,0.208-4.155,0.959-6.232
			c0.175-0.484,0.708-0.735,1.193-0.56c0.269,0.098,0.467,0.311,0.559,0.56c0.751,2.077,0.923,4.154,0.959,6.232
			c-0.018,2.077-0.191,4.154-0.959,6.231c-0.179,0.485-0.716,0.731-1.2,0.553C79.54,58.282,79.345,58.073,79.252,57.827z"/>
		<path fill="#FF8B4B" d="M73.297,60.987c-0.21-0.189-0.401-0.388-0.585-0.591l0.219,0.303c-1.634-0.869-2.983-2.021-4.214-3.293
			c-1.21-1.292-2.328-2.675-3.083-4.422c-0.206-0.479,0.014-1.033,0.492-1.239c0.247-0.107,0.518-0.099,0.748,0
			c1.747,0.754,3.13,1.873,4.423,3.083c1.271,1.23,2.423,2.58,3.292,4.213l0.219,0.303c0.03,0.28,0.052,0.564,0.056,0.858
			l0.001,0.079c0.006,0.518-0.408,0.943-0.926,0.949C73.692,61.233,73.466,61.14,73.297,60.987z"/>
		<path fill="#FF8B4B" d="M69.868,66.487c-1.83,0.768-3.658,0.942-5.488,0.959c-1.829-0.035-3.657-0.207-5.487-0.959
			c-0.483-0.198-0.715-0.752-0.516-1.236c0.1-0.243,0.291-0.423,0.516-0.517c1.83-0.751,3.658-0.923,5.487-0.958
			c1.83,0.017,3.658,0.19,5.488,0.958c0.484,0.204,0.711,0.76,0.508,1.245C70.276,66.217,70.088,66.394,69.868,66.487z"/>
		<path fill="#FF8B4B" d="M73.671,74.369c-0.752,1.839-1.925,3.256-3.208,4.564c-1.32,1.271-2.737,2.443-4.563,3.208
			c-0.482,0.202-1.038-0.025-1.24-0.508c-0.102-0.243-0.093-0.506,0-0.731c0.764-1.827,1.938-3.244,3.208-4.564
			c1.307-1.282,2.725-2.455,4.563-3.208c0.486-0.199,1.041,0.034,1.239,0.52C73.77,73.889,73.762,74.147,73.671,74.369z"/>
		<path fill="#FF8B4B" d="M79.59,77.996c0.768,1.968,0.941,3.937,0.959,5.904c-0.036,1.968-0.208,3.937-0.959,5.905
			c-0.185,0.483-0.727,0.727-1.21,0.542c-0.258-0.099-0.45-0.302-0.542-0.542c-0.751-1.968-0.924-3.937-0.959-5.905
			c0.018-1.968,0.191-3.937,0.959-5.904c0.188-0.484,0.734-0.723,1.217-0.535C79.309,77.56,79.497,77.761,79.59,77.996z"/>
		<path fill="#FF8B4B" d="M88.178,74.191c1.77,0.684,3.119,1.787,4.357,3.001c1.201,1.251,2.306,2.6,3.001,4.357
			c0.194,0.49-0.046,1.045-0.537,1.239c-0.234,0.092-0.485,0.085-0.703,0c-1.758-0.695-3.105-1.8-4.357-3.001
			c-1.214-1.238-2.317-2.588-3.001-4.357c-0.19-0.493,0.056-1.048,0.549-1.239C87.719,74.103,87.965,74.109,88.178,74.191z"/>
		<path fill="#FF8B4B" d="M93.22,67.212c1.96-0.768,3.921-0.942,5.881-0.959c1.96,0.035,3.921,0.208,5.88,0.959
			c0.485,0.185,0.727,0.728,0.541,1.211c-0.099,0.258-0.302,0.449-0.541,0.542c-1.959,0.751-3.92,0.923-5.88,0.959
			c-1.96-0.018-3.92-0.191-5.881-0.959c-0.484-0.189-0.722-0.736-0.533-1.22C92.787,67.492,92.986,67.305,93.22,67.212z"/>
		<path fill="#FF8B4B" d="M87.293,60.392c0.967-2.054,2.355-3.688,3.855-5.211c1.536-1.486,3.168-2.875,5.21-3.854
			c0.463-0.222,1.018-0.027,1.239,0.435c0.126,0.263,0.116,0.56,0,0.804c-0.98,2.042-2.369,3.675-3.855,5.211
			c-1.523,1.499-3.156,2.887-5.211,3.855c-0.464,0.219-1.019,0.02-1.238-0.445C87.171,60.926,87.181,60.633,87.293,60.392z"/>
	</g>
	<path fill="#00D8D3" d="M90.626,468.977c-2.671,0.63,7.386,14.712,11.239,13.619c3.854-1.093,21.838-15.544,20.875-21.967
		c-0.964-6.423-10.598-8.596-12.524-8.153C108.288,452.921,107.004,465.124,90.626,468.977z"/>
	<path fill="#FF6A81" d="M71.104,520.211c-2.07-1.44-8.029,12.704-5.46,14.631c2.57,1.926,22.246,13.865,30.546,9.634
		c1.889-0.964-2.053-8.271,3.816-17.662C101.61,524.243,83.306,528.701,71.104,520.211z"/>
	<path fill="#00D8D3" d="M44.692,144.273c-6.319,1.975-3.992,28.875,8.992,31.472c3.211,0.643-1.37-15.495,7.065-27.131
		C62.034,146.842,49.83,142.667,44.692,144.273z"/>
	<path fill="#9578F0" d="M73.878,370.175c-4.849,2.91,2.91,13.579-4.849,20.852c-7.76,7.275-20.852,13.093-15.033,26.186
		c5.819,13.094,19.882,14.064,19.882,14.064s-7.759-9.7,5.334-21.338c13.093-11.637,19.397-22.307,14.547-29.095
		C88.912,374.055,73.878,370.175,73.878,370.175z"/>
	<path fill="#FF6A81" d="M7.713,279.571c-4.637,10.786,43.634,48.902,46.295,45.8c2.663-3.101,4.131-9.458,4.872-11.475
		c0.739-2.016-28.06-29.472-34.813-45.696C22.721,264.967,9.758,274.813,7.713,279.571z"/>
	<path fill="#9BCA3C" d="M59.434,243.396c-5.115,3.789-4.282,18.84,8.563,15.415C80.842,255.386,70.995,234.833,59.434,243.396z"/>
	<path fill="#FF6A81" d="M168.917,457.174c-0.163-0.384-0.324-0.768-0.486-1.151c-0.251-0.325-0.503-0.651-0.755-0.977
		c-0.436-0.471-0.954-0.802-1.552-0.998c-0.376-0.217-0.782-0.326-1.217-0.328c-0.642-0.144-1.283-0.115-1.924,0.086
		c-0.548,0.214-1.081,0.452-1.616,0.692c-0.166,0.074-0.321,0.147-0.473,0.246c-0.499,0.295-0.896,0.691-1.19,1.19
		c-0.299,0.517-0.451,1.074-0.453,1.674c0.047,0.702,0.177,1.442,0.363,2.13c0.162,0.385,0.323,0.769,0.486,1.152
		c0.251,0.326,0.502,0.651,0.754,0.977c0.437,0.472,0.954,0.804,1.553,0.997c0.376,0.22,0.781,0.329,1.217,0.331
		c0.428,0.114,0.854,0.114,1.283,0c0.435-0.002,0.841-0.111,1.217-0.331c0.409-0.114,0.763-0.321,1.063-0.619
		c0.526-0.341,0.939-0.791,1.243-1.354c0.162-0.384,0.323-0.768,0.486-1.152c0.058-0.427,0.114-0.854,0.172-1.281L168.917,457.174z"
		/>
	<g>
		<path fill="#FF6A81" d="M203.59,474.401c-1.125-1.845-2.929-3.311-4.97-4.15c-1.427-0.771-3.039-1.183-4.696-1.064
			c-0.828,0.062-1.649,0.199-2.417,0.519c-0.743,0.309-1.336,0.824-1.622,1.49c-1.223,0.96-2.178,2.267-2.818,3.824
			c-1.034,2.512-0.951,5.678,0.522,8.007c2.584,4.083,7.922,4.524,11.792,2.331c0.993-0.226,1.934-0.68,2.775-1.344
			C205.1,481.686,205.485,477.51,203.59,474.401z"/>
		<path fill="#FF6A81" d="M196.48,479.238c0.001,0.004,0.003,0.007,0.004,0.011c0.001-0.004,0.002-0.007,0.003-0.011
			c0.001,0.002,0.002,0.004,0.003,0.005c0.001-0.003,0.003-0.005,0.003-0.007c0-0.004-0.001-0.007-0.002-0.009
			c0.005-0.015,0.008-0.029,0.013-0.043c-0.009,0.003-0.011,0.005-0.021,0.009c0.003-0.027,0.005-0.047,0.007-0.068
			c-0.007-0.011-0.012-0.021-0.019-0.032c-0.004,0.011-0.006,0.023-0.01,0.034c-0.007-0.027-0.013-0.054-0.018-0.079
			c-0.003,0.038-0.006,0.075,0.004,0.12c0,0.002,0.001,0.004,0.002,0.006c-0.001,0.002-0.001,0.002-0.002,0.003
			c0.003,0.011,0.014,0.023,0.018,0.034c-0.007,0.006-0.015,0.017-0.022,0.021c0,0.021,0.013,0.043,0.017,0.064
			c0.006-0.012,0.014-0.024,0.021-0.037C196.481,479.251,196.479,479.247,196.48,479.238z"/>
		<polygon fill="#FF6A81" points="194.672,479.839 194.681,479.839 194.678,479.838 		"/>
	</g>
	<g>
		<path fill="#FF6A81" d="M82.21,633.207c-0.107-0.198-0.239-0.381-0.362-0.567c0.132-0.152,0.259-0.309,0.322-0.501
			c0.089-0.156,0.135-0.324,0.136-0.506c0.047-0.178,0.047-0.355,0-0.533c-0.055-0.407-0.226-0.874-0.551-1.15
			c-0.345-0.291-0.561-0.443-0.949-0.606c-0.414-0.176-0.636-0.217-1.132-0.26c0.198,0.026,0.395,0.054,0.593,0.08
			c-0.215-0.03-0.449-0.082-0.666-0.079c-0.207,0.006-0.47,0.049-0.673,0.092c-0.062,0.015-0.12,0.032-0.179,0.054
			c-0.234,0.088-0.482,0.178-0.7,0.306c-0.131,0.077-0.245,0.178-0.363,0.274h-0.001c-0.005,0.004-0.01,0.007-0.014,0.011
			c-0.085,0.068-0.176,0.129-0.26,0.195c0.09-0.068,0.18-0.138,0.268-0.206c-0.116-0.006-0.233-0.02-0.347-0.007
			c-0.67,0.071-1.089,0.152-1.7,0.463c-0.759,0.382-1.275,1.129-1.531,1.918c-0.096,0.298-0.128,0.621-0.132,0.932
			c0,0.048,0.005,0.093,0.01,0.14c0.031,0.276,0.052,0.565,0.12,0.835c0.26,1.021,0.945,1.884,1.812,2.456
			c0.743,0.492,1.725,0.565,2.568,0.282c0.128,0.052,0.243,0.133,0.374,0.167c0.283,0.073,0.589,0.102,0.878,0.122
			c0.08,0.005,0.16,0.002,0.24-0.008c0.467-0.002,0.904-0.118,1.309-0.354c0.389-0.231,0.7-0.542,0.93-0.931
			C82.691,635.005,82.657,634.03,82.21,633.207z"/>
		<path fill="#FF6A81" d="M77.898,629.641c-0.073,0.056-0.146,0.111-0.219,0.169c0.002,0,0.005,0,0.006,0
			C77.759,629.754,77.828,629.691,77.898,629.641z"/>
	</g>
	<path fill="#00D8D3" d="M71.744,675.832c-0.608-0.585-1.337-1.005-2.122-1.26c-0.242-0.183-0.473-0.377-0.753-0.515
		c-0.872-0.431-1.893-0.615-2.86-0.6c-1.945,0.03-3.833,0.803-5.191,2.209c-1.562,1.621-2.192,3.882-1.608,6.071
		c0.51,1.909,1.947,3.565,3.677,4.488c1.772,0.945,3.917,1.335,5.873,0.755c2.232-0.662,3.949-2.458,4.546-4.707
		C73.895,680.063,73.437,677.46,71.744,675.832z"/>
</g>
<g>
	<path fill="#FFD500" d="M431.822,396.373c-2.924,2.546-7.278,15.843-7.278,15.843s-15.845,5.995-15.845,8.136
		c0,2.142,11.563,10.275,11.563,10.275s-0.429,16.697,2.139,17.983c2.57,1.285,14.131-10.918,14.131-10.918
		s16.484,9.228,19.055,6.637c2.569-2.592-1.928-17.128-1.928-17.128s8.636-12.238,7.708-14.557
		c-0.856-2.141-15.414-2.141-15.414-2.141S434.27,394.239,431.822,396.373z"/>
	<path fill="#FF6A81" d="M389.374,303.784l-17.343,6.422c0,0,3.532,19.269,11.561,22.801l11.561-1.926
		C395.152,331.081,386.805,310.849,389.374,303.784z"/>
	<path fill="#00D8D3" d="M417.085,354.537l-4.818,15.297c0,0,11.914,6.54,15.271,6.861c0,0,1.428-17.662,7.529-22.158
		C435.066,354.537,419.975,353.573,417.085,354.537z"/>
	<path fill="#9BCA3C" d="M338.872,214.83l-16.377,5.258c0,0,4.493,28.159,5.778,29.595c1.285,1.435,12.203,0,12.203,0
		L338.872,214.83z"/>
	<path fill="#9578F0" d="M413.073,220.501c-2.864,0.497-14.45,5.781-14.771,8.029s2.568,13.808,8.992,17.021
		c6.421,3.21,17.662,2.569,20.232,8.67c2.567,6.102,2.889,13.809,5.459,14.13c2.569,0.321,15.734-10.276,16.056-13.809
		c0.321-3.532-4.174-13.809-9.635-17.02c-5.459-3.211-19.267-1.605-20.552-7.065C417.57,224.998,415.395,220.1,413.073,220.501z"/>
	<path fill="#00D8D3" d="M365.098,250.853c-2.738,1.795-7.706,7.708-2.247,11.562c5.459,3.854,11.239-0.643,10.918-5.78
		C373.447,251.495,367.746,249.118,365.098,250.853z"/>
	<path fill="#9BCA3C" d="M439.63,167c-2.646,1.765,9.57,14.001,3.854,31.152c-0.962,2.89,13.487,3.86,15.094,3.054
		c1.606-0.807,6.382-30.67,2.249-36.453C459.22,162.508,443.483,164.429,439.63,167z"/>
	<g>
		<path fill="#F393B9" d="M303.428,328.941c-0.813-1.185-1.337-2.417-1.761-3.667c-0.438-1.248-0.735-2.518-0.943-3.804
			c-0.205-1.286-0.334-2.584-0.323-3.907c-0.004-1.32,0.09-2.655,0.458-4.037c0.206-0.77,0.996-1.227,1.768-1.022
			c0.352,0.094,0.639,0.311,0.825,0.59c0.797,1.188,1.317,2.421,1.741,3.67c0.441,1.247,0.74,2.517,0.965,3.8
			c0.219,1.284,0.349,2.582,0.338,3.904c0.007,1.319-0.09,2.656-0.474,4.041c-0.216,0.771-1.013,1.223-1.784,1.009
			C303.895,329.424,303.612,329.213,303.428,328.941z"/>
		<path fill="#F393B9" d="M310.441,328.061c0.084-1.341,0.418-2.537,0.843-3.677c0.409-1.15,0.942-2.228,1.555-3.261
			c0.615-1.029,1.294-2.021,2.101-2.939c0.79-0.927,1.664-1.805,2.78-2.541c0.677-0.446,1.585-0.258,2.029,0.417
			c0.187,0.28,0.263,0.601,0.239,0.912c-0.098,1.334-0.437,2.526-0.86,3.668c-0.405,1.151-0.938,2.229-1.537,3.27
			c-0.602,1.037-1.281,2.029-2.086,2.949c-0.787,0.929-1.667,1.803-2.796,2.531c-0.684,0.441-1.595,0.244-2.036-0.44
			C310.496,328.676,310.421,328.363,310.441,328.061z"/>
		<path fill="#F393B9" d="M297.418,333.98c-1.371-0.425-2.547-1.065-3.65-1.784c-1.116-0.706-2.137-1.518-3.097-2.395
			c-0.959-0.881-1.863-1.819-2.673-2.864c-0.819-1.032-1.573-2.135-2.141-3.447c-0.315-0.732,0.021-1.582,0.754-1.897
			c0.334-0.144,0.692-0.152,1.012-0.049c1.36,0.437,2.534,1.081,3.64,1.797c1.118,0.704,2.139,1.515,3.108,2.381
			c0.969,0.872,1.873,1.808,2.685,2.851c0.821,1.03,1.572,2.138,2.128,3.461c0.313,0.738-0.036,1.588-0.775,1.898
			C298.082,334.07,297.732,334.078,297.418,333.98z"/>
		<path fill="#F393B9" d="M296.16,340.316c-1.213,0.607-2.427,0.922-3.64,1.132c-1.213,0.228-2.426,0.313-3.64,0.308
			c-1.213-0.009-2.426-0.095-3.639-0.326c-1.213-0.214-2.427-0.523-3.64-1.115c-0.727-0.354-1.028-1.229-0.673-1.955
			c0.147-0.305,0.39-0.536,0.673-0.673c1.213-0.591,2.427-0.902,3.64-1.114c1.213-0.231,2.426-0.317,3.639-0.327
			c1.214-0.005,2.427,0.081,3.64,0.309c1.213,0.21,2.427,0.526,3.64,1.132c0.727,0.362,1.021,1.245,0.658,1.97
			C296.672,339.955,296.435,340.179,296.16,340.316z"/>
		<path fill="#F393B9" d="M299.385,346.169c-0.287,1.485-0.812,2.807-1.421,4.067c-0.6,1.271-1.314,2.46-2.104,3.6
			c-0.791,1.136-1.647,2.23-2.624,3.241c-0.96,1.021-1.999,1.987-3.272,2.794c-0.666,0.423-1.549,0.226-1.971-0.441
			c-0.205-0.323-0.264-0.701-0.194-1.048c0.298-1.477,0.826-2.794,1.436-4.057c0.597-1.272,1.311-2.463,2.088-3.611
			c0.78-1.144,1.635-2.238,2.607-3.25c0.958-1.023,2.004-1.986,3.287-2.784c0.675-0.419,1.558-0.212,1.978,0.46
			C299.392,345.459,299.449,345.828,299.385,346.169z"/>
		<path fill="#F393B9" d="M308.674,348.531c0.937,1.245,1.59,2.559,2.143,3.9c0.57,1.336,0.999,2.707,1.342,4.1
			c0.341,1.394,0.604,2.807,0.729,4.254c0.141,1.444,0.188,2.911-0.036,4.446c-0.114,0.776-0.836,1.314-1.614,1.2
			c-0.388-0.057-0.718-0.27-0.938-0.563c-0.92-1.248-1.568-2.564-2.124-3.904c-0.571-1.336-1.004-2.707-1.36-4.096
			c-0.352-1.39-0.617-2.802-0.745-4.25c-0.146-1.442-0.185-2.911,0.054-4.45c0.122-0.778,0.853-1.311,1.632-1.19
			C308.135,348.038,308.458,348.246,308.674,348.531z"/>
		<path fill="#F393B9" d="M315.97,344.349c1.544,0.343,2.92,0.922,4.235,1.589c1.328,0.651,2.569,1.421,3.764,2.263
			c1.189,0.846,2.334,1.755,3.398,2.783c1.073,1.013,2.091,2.106,2.946,3.427c0.426,0.658,0.237,1.536-0.422,1.962
			c-0.333,0.216-0.729,0.272-1.087,0.191c-1.536-0.354-2.909-0.939-4.229-1.604c-1.326-0.649-2.571-1.417-3.771-2.249
			c-1.199-0.835-2.344-1.743-3.41-2.768c-1.073-1.01-2.089-2.108-2.936-3.442c-0.42-0.664-0.225-1.543,0.439-1.964
			C315.227,344.327,315.614,344.271,315.97,344.349z"/>
		<path fill="#F393B9" d="M314.879,336.122c1.041-0.901,2.155-1.522,3.299-2.04c1.136-0.537,2.309-0.934,3.506-1.245
			c1.199-0.307,2.416-0.54,3.668-0.632c1.251-0.109,2.525-0.125,3.873,0.131c0.789,0.15,1.308,0.913,1.157,1.703
			c-0.064,0.34-0.242,0.631-0.488,0.838c-1.044,0.887-2.16,1.503-3.3,2.024c-1.138,0.539-2.312,0.938-3.503,1.262
			c-1.195,0.32-2.412,0.554-3.665,0.648c-1.248,0.113-2.526,0.123-3.876-0.148c-0.793-0.159-1.307-0.93-1.148-1.723
			C314.47,336.61,314.642,336.328,314.879,336.122z"/>
	</g>
	<g>
		<path fill="#FF8B4B" d="M355.104,416.169c-0.768-2.076-0.942-4.154-0.96-6.232c0.036-2.076,0.208-4.154,0.96-6.232
			c0.174-0.483,0.709-0.734,1.193-0.559c0.27,0.097,0.467,0.311,0.56,0.559c0.751,2.078,0.923,4.156,0.959,6.232
			c-0.019,2.078-0.19,4.156-0.959,6.232c-0.179,0.484-0.718,0.732-1.2,0.553C355.391,416.625,355.195,416.415,355.104,416.169z"/>
		<path fill="#FF8B4B" d="M349.147,419.329c-0.208-0.19-0.4-0.388-0.585-0.591l0.219,0.302c-1.633-0.868-2.982-2.021-4.214-3.293
			c-1.209-1.29-2.327-2.674-3.083-4.422c-0.204-0.478,0.015-1.033,0.492-1.24c0.248-0.105,0.519-0.097,0.748,0
			c1.746,0.756,3.132,1.874,4.424,3.085c1.271,1.229,2.423,2.579,3.291,4.212l0.219,0.304c0.029,0.279,0.053,0.563,0.056,0.857
			l0.002,0.079c0.006,0.519-0.409,0.943-0.928,0.949C349.542,419.575,349.316,419.481,349.147,419.329z"/>
		<path fill="#FF8B4B" d="M345.72,424.829c-1.83,0.769-3.659,0.942-5.487,0.96c-1.831-0.035-3.657-0.208-5.488-0.96
			c-0.484-0.197-0.714-0.752-0.517-1.236c0.101-0.242,0.291-0.422,0.517-0.515c1.831-0.752,3.657-0.925,5.488-0.96
			c1.828,0.018,3.657,0.191,5.487,0.96c0.483,0.202,0.711,0.759,0.506,1.243C346.127,424.561,345.938,424.736,345.72,424.829z"/>
		<path fill="#FF8B4B" d="M349.522,432.711c-0.752,1.84-1.926,3.257-3.207,4.565c-1.32,1.269-2.738,2.442-4.565,3.207
			c-0.48,0.202-1.037-0.025-1.238-0.508c-0.102-0.242-0.093-0.507,0-0.73c0.765-1.827,1.938-3.245,3.209-4.565
			c1.307-1.283,2.725-2.455,4.562-3.207c0.488-0.199,1.041,0.032,1.24,0.519C349.621,432.23,349.614,432.488,349.522,432.711z"/>
		<path fill="#FF8B4B" d="M355.441,436.338c0.768,1.969,0.941,3.936,0.96,5.904c-0.036,1.968-0.208,3.937-0.96,5.905
			c-0.186,0.482-0.728,0.727-1.212,0.542c-0.258-0.099-0.448-0.303-0.542-0.542c-0.75-1.969-0.922-3.938-0.958-5.905
			c0.018-1.969,0.19-3.936,0.958-5.904c0.19-0.484,0.736-0.724,1.219-0.535C355.159,435.901,355.35,436.103,355.441,436.338z"/>
		<path fill="#FF8B4B" d="M364.029,432.533c1.77,0.684,3.119,1.787,4.359,3.001c1.199,1.252,2.304,2.6,3,4.356
			c0.194,0.492-0.046,1.047-0.538,1.24c-0.233,0.094-0.484,0.086-0.701,0c-1.757-0.694-3.106-1.8-4.357-3
			c-1.215-1.24-2.316-2.588-3.002-4.357c-0.19-0.495,0.056-1.05,0.549-1.24C363.57,432.443,363.816,432.451,364.029,432.533z"/>
		<path fill="#FF8B4B" d="M369.07,425.555c1.962-0.769,3.923-0.942,5.883-0.959c1.96,0.034,3.919,0.207,5.879,0.959
			c0.484,0.185,0.729,0.729,0.542,1.211c-0.099,0.259-0.302,0.448-0.542,0.54c-1.96,0.752-3.919,0.924-5.879,0.96
			c-1.96-0.018-3.921-0.191-5.883-0.96c-0.482-0.188-0.721-0.735-0.531-1.219C368.637,425.834,368.837,425.647,369.07,425.555z"/>
		<path fill="#FF8B4B" d="M363.145,418.735c0.968-2.055,2.356-3.688,3.855-5.212c1.536-1.485,3.169-2.875,5.211-3.854
			c0.463-0.223,1.016-0.027,1.238,0.435c0.126,0.264,0.115,0.56,0,0.804c-0.979,2.042-2.369,3.675-3.854,5.211
			c-1.523,1.499-3.157,2.888-5.212,3.855c-0.465,0.219-1.019,0.02-1.238-0.445C363.023,419.268,363.032,418.976,363.145,418.735z"/>
	</g>
	<circle fill="#9BCA3C" cx="292.521" cy="409.095" r="7.298"/>
	<circle fill="#FF6A81" cx="443.56" cy="515.429" r="7.298"/>
	<path fill="#00D8D3" d="M448.587,96.25c-3.201-0.26-7.867,5.492-6.427,10.746c1.441,5.252,7.891,6.024,11.969,2.69
		C458.206,106.351,456.317,96.877,448.587,96.25z"/>
	<path fill="#FF6A81" d="M381.726,176.833c-0.133-0.474-0.373-0.886-0.72-1.235c-0.095-0.123-0.193-0.244-0.289-0.366
		c-0.224-0.172-0.448-0.346-0.671-0.519c-0.266-0.111-0.529-0.222-0.793-0.333c-0.441-0.138-0.881-0.158-1.322-0.059
		c-0.3,0-0.578,0.076-0.837,0.226c-0.281,0.079-0.525,0.221-0.732,0.426c-0.249,0.147-0.446,0.346-0.594,0.595
		c-0.206,0.207-0.348,0.451-0.427,0.732c-0.208,0.395-0.304,0.821-0.285,1.278l0.118,0.881c0.111,0.265,0.223,0.528,0.334,0.792
		c0.174,0.225,0.346,0.448,0.519,0.671c0.223,0.173,0.448,0.346,0.671,0.519c0.264,0.111,0.527,0.223,0.793,0.334
		c0.44,0.138,0.882,0.158,1.321,0.06c0.3-0.001,0.578-0.077,0.838-0.227c0.411-0.133,0.767-0.362,1.067-0.686
		c0.096-0.121,0.194-0.242,0.289-0.365c0.273-0.254,0.465-0.554,0.58-0.901c0.174-0.334,0.255-0.694,0.24-1.079
		C381.792,177.329,381.758,177.082,381.726,176.833z"/>
	<path fill="#FF6A81" d="M481.572,240.789c-0.646-1.678-1.667-3.137-3.212-4.106c-1.382-0.866-3.297-1.244-4.861-0.686
		c-1.486,0.529-2.755,1.57-3.5,2.975c-0.89,1.677-1.069,3.638-0.189,5.358c0.197,0.387,0.48,0.75,0.778,1.06
		c0.214,0.222,0.537,0.482,0.769,0.625c0.532,0.327,1.073,0.383,1.687,0.415c0.486,0.025,0.975,0.061,1.461,0.07
		c0.47,0.009,0.937-0.1,1.399-0.214c1.231,0.616,2.71,0.835,4.015,0.429c0.302-0.093,0.623-0.213,0.896-0.365
		c0.527-0.29,0.987-0.867,1.121-1.457c0.054-0.235,0.074-0.499,0.099-0.739c0.036-0.335,0.04-0.671,0.015-1.007
		C481.987,242.348,481.861,241.539,481.572,240.789z"/>
	<path fill="#00D8D3" d="M290.477,538.171c-0.506-1.26-1.303-1.83-2.627-1.999c-4.447-0.565-8.869-0.563-13.315,0.009
		c-1.269,0.163-2.226,0.747-2.635,2.007c-1.96,6.015,1.414,11.079,3.241,16.594c0.725,2.189,1.436,5.014,0.388,7.218
		c-1.109,2.329-4.199,2.772-6.324,3.747c-5.455,2.503-6.965,8.802-4.968,13.708c0.61,3.353,2.498,6.431,5.658,8.044
		c2.988,1.525,5.559-2.538,3.078-4.473c0.004-0.771-0.294-1.558-0.958-2.096c0.043-0.24,0.114-0.479,0.201-0.714
		c0.195-0.013,0.396-0.045,0.603-0.113c1.099-0.359,2.202-0.801,3.169-1.429c3.299-1.498,6.568-3.053,9.754-4.782
		c0.396-0.214,0.669-0.516,0.84-0.856c1.638-0.933,3.135-2.141,4.436-3.837C298.175,559.858,294.405,547.973,290.477,538.171z"/>
</g>
<g>
	<path opacity="0.13" fill="#5B2B64" d="M266.446,744.404c2.567,8.794-37.578,46.767-102.002,46.767s-99.433-14.446-98.172-29.467
		c0.958-11.399,30.124-22.288,94.475-25.357C223.615,733.351,263.325,733.72,266.446,744.404z"/>
	<g>
		<g>
			<path fill="#00D8D3" d="M220.105,646.551c1.177,2.646,2.353,5.274,3.51,7.884c0,0-44.306,39.912-105.093,46.014
				c0.661-2.83,1.341-5.716,2.04-8.638l1.305,0.295c59.024-10.071,98.22-45.555,98.22-45.555H220.105z"/>
			<path fill="#6D35A3" d="M260.386,740.23c1.213,5.276-13.506,27.657-56.745,38.701s-97.798-11.815-98.644-16.208
				c-0.293-1.489,5.476-27.931,13.525-62.275c60.787-6.102,105.093-46.014,105.093-46.014
				C243.131,698.225,259.872,737.897,260.386,740.23z"/>
			<path fill="#6D35A3" d="M220.105,646.551h-0.019c0,0-39.196,35.483-98.22,45.555l-1.305-0.295
				c2.756-11.743,5.751-24.201,8.82-36.752c36.845-9.335,75.894-41.163,75.894-41.163
				C210.199,624.573,215.217,635.635,220.105,646.551z"/>
			<path fill="#00D8D3" d="M200.773,604.175c1.488,3.197,2.994,6.449,4.502,9.721c0,0-39.049,31.828-75.894,41.163
				c0.791-3.233,1.599-6.487,2.39-9.721c36.991-11.817,68.984-41.163,68.984-41.163H200.773z"/>
			<path fill="#6D35A3" d="M200.773,604.175h-0.018c0,0-31.993,29.346-68.984,41.163c4.539-18.432,9.188-36.717,13.488-52.923
				c18.56-2.941,39.876-20.803,39.876-20.803h0.019C189.969,581.296,195.279,592.415,200.773,604.175z"/>
			<path fill="#00D8D3" d="M185.154,571.612h-0.019c0,0-21.316,17.861-39.876,20.803c0.717-2.703,1.415-5.348,2.113-7.903
				c15.73-4.428,34.143-20.121,34.143-20.121C182.691,566.688,183.904,569.095,185.154,571.612z"/>
			<path fill="#6D35A3" d="M181.516,564.391c0,0-18.413,15.693-34.143,20.121c7.736-28.61,14.04-48.989,16.208-48.771
				C166.098,535.981,172.769,547.246,181.516,564.391z"/>
		</g>
		<path fill="#00D8D3" d="M196.906,520.105c1.824-6.791-8.991-15.724-18.148-16.154c0.148-1.416,0.128-2.817-0.135-4.154
			c-2.488-12.726-20.631-22.694-31.639-8.293c-2.892,3.784-3.891,10.119-3.151,15.548c-4.65-1.472-9.688-0.892-12.321,4.867
			c-3.398,7.433,0.822,13.091,5.627,15.824c-2.941,3.03-4.932,7.648-2.767,12.425c4.896,10.811,22.024,11.644,28.49,2.817
			c0,0,13.392,12.512,26.929,1.802c7.694-6.087,6.395-14.031,2.858-18.591C194.547,524.843,196.171,522.844,196.906,520.105z"/>
		<path fill="#00AEA6" d="M158.06,484.907c-3.079,0.531-5.91,2.053-8.177,4.169c-1.114,1.063-2.165,2.273-2.987,3.542
			c-0.791,1.305-1.375,2.744-1.823,4.227c-0.87,2.98-1.116,6.162-0.835,9.273c0.285,3.08,1.104,6.274,3.071,8.602
			c0.997,1.122,2.364,1.87,3.802,1.84c0.673-0.021,1.534-0.169,1.927-0.433c0.211-0.135,0.227-0.262,0.257-0.422
			c-0.005-0.193-0.068-0.454-0.191-0.743c-0.55-1.179-1.704-2.288-2.815-3.274c-1.152-0.987-2.417-1.876-3.762-2.611
			c-2.661-1.476-5.79-2.348-8.684-1.787c-2.928,0.54-5.08,2.993-6.166,5.845c-1.175,2.81-1.214,6.126,0.315,8.81
			c0.721,1.351,1.831,2.456,3.014,3.398c1.188,0.944,2.478,1.768,3.856,2.394c1.381,0.587,2.853,1.079,4.292,1.084
			c1.46,0.023,2.683-0.576,2.575-1.924c-0.015-0.667-0.213-1.316-0.631-1.671c-0.428-0.354-1.103-0.47-1.8-0.38
			c-1.411,0.18-2.815,0.919-4.041,1.809c-2.471,1.788-4.345,4.531-4.842,7.464c-0.553,2.936,0.434,5.892,2.249,8.307
			c1.796,2.432,4.502,4.103,7.396,5.109c2.926,0.964,6.108,1.232,9.211,0.782c0.188-0.032,0.364,0.095,0.396,0.282
			c0.029,0.179-0.093,0.35-0.266,0.393c-3.169,0.696-6.542,0.688-9.718-0.236c-3.157-0.905-6.187-2.676-8.268-5.357
			c-1.025-1.337-1.902-2.801-2.376-4.476c-0.469-1.66-0.523-3.456-0.083-5.112c0.841-3.34,3.013-6.061,5.607-8.092
			c1.334-0.979,2.824-1.827,4.59-2.083c0.866-0.11,1.901-0.038,2.748,0.611c0.832,0.684,1.112,1.707,1.158,2.609
			c0.093,0.924-0.344,2.085-1.219,2.659c-0.845,0.589-1.793,0.732-2.666,0.763c-1.766,0.031-3.416-0.432-4.954-1.096
			c-3.097-1.305-5.644-3.779-7.126-6.763c-1.558-2.962-1.701-6.587-0.555-9.708c0.535-1.56,1.329-3.096,2.526-4.341
			c1.185-1.244,2.772-2.164,4.469-2.507c3.433-0.711,6.799,0.335,9.757,1.735c1.484,0.735,2.905,1.609,4.189,2.683
			c1.256,1.107,2.478,2.288,3.192,4.066c0.168,0.452,0.276,0.987,0.188,1.59c-0.109,0.624-0.571,1.217-1.081,1.45
			c-1.028,0.463-1.823,0.418-2.728,0.393c-0.882-0.104-1.739-0.36-2.508-0.778c-0.757-0.44-1.385-1.032-1.957-1.653
			c-2.162-2.625-2.958-5.931-3.36-9.129c-0.345-3.233-0.133-6.53,0.737-9.69c0.431-1.581,1.069-3.122,1.98-4.521
			c0.947-1.387,2.035-2.575,3.248-3.688c2.423-2.198,5.509-3.74,8.77-4.095c0.189-0.022,0.359,0.114,0.381,0.303
			C158.364,484.71,158.236,484.875,158.06,484.907z"/>
		<path fill="#00AEA6" d="M175.37,548.583c3.067,0.348,6.197-0.032,9.021-1.213c2.827-1.161,5.357-3.062,7.396-5.285
			c2.032-2.243,3.237-5.212,3.149-8.233c-0.067-3.013-1.312-6.021-3.394-8.214c-1.034-1.086-2.322-1.981-3.708-2.304
			c-1.398-0.341-2.701,0.112-3.482,1.138c-0.428,0.536-0.785,1.161-0.846,1.642c-0.042,0.458,0.072,0.689,0.57,0.977
			c1.001,0.545,2.603,0.54,3.994,0.258c2.878-0.547,5.534-2.355,7.047-4.859c0.737-1.252,1.288-2.704,1.275-4.07
			c-0.009-1.406-0.489-2.846-1.235-4.145c-1.508-2.611-3.837-4.79-6.45-6.407c-1.319-0.8-2.754-1.391-4.194-1.881
			c-1.438-0.502-2.907-0.894-4.389-1.112c-2.938-0.452-6.088-0.066-8.386,1.806c-2.316,1.87-3.42,4.836-4.013,7.853
			c-0.312,1.478-0.548,3.103-0.159,4.372c0.223,0.644,0.508,0.821,1.068,0.667c0.558-0.146,1.173-0.56,1.723-1.021
			c2.171-1.989,3.956-4.571,5.353-7.271c1.373-2.722,2.35-5.688,2.495-8.701c0.129-2.99-0.802-6.037-2.357-8.698
			c-0.098-0.163-0.043-0.373,0.121-0.471c0.156-0.091,0.356-0.044,0.458,0.103c1.801,2.626,3.071,5.765,3.056,9.09
			c0.02,3.295-0.97,6.469-2.352,9.376c-1.415,2.894-3.181,5.684-5.847,7.742c-0.686,0.491-1.423,0.971-2.407,1.159
			c-0.474,0.114-1.106,0.014-1.605-0.306c-0.465-0.369-0.728-0.852-0.853-1.299c-0.427-1.796-0.11-3.388,0.162-4.969
			c0.577-3.087,1.712-6.416,4.309-8.651c2.613-2.229,6.235-2.802,9.453-2.346c3.304,0.362,6.245,1.952,8.906,3.7
			c2.647,1.785,5.169,3.865,6.951,6.642c0.862,1.387,1.546,2.989,1.589,4.741c0.021,1.789-0.599,3.392-1.418,4.844
			c-1.713,2.927-4.697,4.909-7.939,5.738c-1.634,0.353-3.392,0.627-5.24-0.266c-0.45-0.224-0.909-0.622-1.21-1.151
			c-0.327-0.537-0.366-1.197-0.275-1.732c0.234-1.074,0.801-1.796,1.37-2.456c0.62-0.693,1.496-1.199,2.414-1.395
			c0.922-0.196,1.858-0.099,2.677,0.187c1.641,0.581,2.976,1.617,4.073,2.824c2.22,2.395,3.536,5.567,3.711,8.835
			c0.157,3.287-1.14,6.58-3.292,9.02c-2.136,2.469-4.891,4.283-7.889,5.482c-3.006,1.2-6.348,1.505-9.499,0.941
			c-0.187-0.032-0.312-0.211-0.278-0.398C175.024,548.686,175.191,548.563,175.37,548.583z"/>
		<circle fill="#F27E8F" cx="141.478" cy="738.113" r="19.268"/>
		<path fill="#F27E8F" d="M247.544,715.639c-1.63-10.516-10.408-17.886-19.607-16.459c-9.2,1.425-15.336,11.106-13.706,21.622
			c1.629,10.517,10.408,17.886,19.606,16.461C243.038,735.834,249.175,726.155,247.544,715.639z"/>
		<path d="M147.165,714.37c-0.354-2.652-0.162-5.341,1.011-7.977c0.583-1.312,1.539-2.545,2.767-3.507
			c1.256-0.971,2.753-1.5,4.315-1.656c1.574-0.212,3.337,0.261,4.646,1.127c1.326,0.876,2.324,2.024,3.004,3.237
			c1.421,2.427,2.043,4.979,2.228,7.616c0.033,0.484-0.332,0.906-0.817,0.938c-0.396,0.028-0.75-0.212-0.885-0.565l-0.022-0.061
			c-0.834-2.198-1.904-4.402-3.196-6.132c-0.654-0.867-1.391-1.581-2.173-1.999c-0.778-0.42-1.553-0.666-2.444-0.508
			c-1.881,0.125-3.418,1.254-4.53,3.021c-1.056,1.802-1.764,4.124-2.15,6.412l-0.014,0.082c-0.081,0.478-0.534,0.801-1.012,0.72
			C147.501,715.054,147.215,714.742,147.165,714.37z"/>
		<path d="M203.021,702.16c-0.815-2.548-1.098-5.228-0.406-8.029c0.343-1.394,1.068-2.775,2.107-3.938
			c1.065-1.176,2.447-1.962,3.959-2.389c1.511-0.484,3.33-0.328,4.77,0.294c1.461,0.629,2.646,1.585,3.528,2.66
			c1.823,2.137,2.884,4.542,3.527,7.104c0.119,0.472-0.166,0.951-0.639,1.069c-0.386,0.097-0.775-0.077-0.969-0.402l-0.034-0.055
			c-1.208-2.02-2.646-4-4.223-5.476c-0.797-0.739-1.647-1.313-2.49-1.588c-0.84-0.276-1.646-0.383-2.495-0.07
			c-1.83,0.454-3.147,1.836-3.93,3.771c-0.726,1.959-1.013,4.371-0.99,6.689v0.085c0.005,0.484-0.385,0.883-0.871,0.887
			C203.472,702.775,203.136,702.518,203.021,702.16z"/>
		<path d="M174.534,706.621c1.837,1,3.793,1.945,5.596,2.395c1.851,0.444,3.433,0.455,5.074-0.076
			c0.801-0.245,1.546-0.583,2.215-1.071c0.716-0.427,1.301-1.071,1.912-1.757c1.178-1.389,2.132-3.332,2.932-5.234l0.083-0.193
			c0.283-0.677,1.062-0.994,1.737-0.709c0.457,0.191,0.75,0.611,0.804,1.073c0.302,2.655-0.149,5.234-1.481,7.707
			c-1.267,2.466-3.755,4.58-6.556,5.439c-1.371,0.386-2.878,0.634-4.351,0.514c-1.456-0.164-2.859-0.508-4.097-1.115
			c-2.501-1.191-4.414-2.932-5.807-5.196c-0.385-0.627-0.189-1.446,0.437-1.831c0.42-0.258,0.927-0.255,1.332-0.037L174.534,706.621
			z"/>
	</g>
</g>
<g>
	<path opacity="0.13" fill="#5B2B64" d="M460.185,755.344c0,8.155-37.472,29.441-88.799,29.441
		c-51.328,0-79.221-10.301-78.216-21.007c0.763-8.126,22.75-23.199,74.077-23.199C418.575,740.579,460.185,747.189,460.185,755.344z
		"/>
	<g>
		<g>
			<path fill="#FF6A81" d="M443.541,725.807c6.137,16.097,9.85,26.792,9.482,27.804c-1.673,4.595-21.28,20.156-65.953,22.784
				c-53.97,3.162-74.736-17.328-76.939-21.812c-0.46-0.937,1.378-10.731,4.594-25.672c0,0,9.941-8.82,20.709,1.746
				c10.787,10.585,9.429,17.753,21.739,16.669c11.173-0.994,12.221-19.148,21.868-20.712c13.064-2.112,15.749,20.472,30.063,14.151
				c9.723-4.282,6.966-21.226,14.848-23.008C431.542,716.048,437.642,730.584,443.541,725.807z"/>
			<path fill="#FFE000" d="M443.541,725.807c-5.899,4.777-11.999-9.759-19.59-8.049c-7.882,1.782-5.125,18.726-14.848,23.008
				c-14.313,6.32-16.998-16.264-30.063-14.151c-9.647,1.563-10.695,19.718-21.868,20.712c-12.311,1.084-10.952-6.084-21.739-16.669
				c-10.768-10.566-20.709-1.746-20.709-1.746c4.647-21.536,12.201-53.786,19.955-85.449h0.019c0,0,6.543-10.932,13.47-9.059
				c6.948,1.894,2.831,19.901,14.04,20.856c11.191,0.938,7.645-15.325,17.658-18.265c8.252-2.427,13.563,12.825,21.465,10.97
				c7.424-1.746,4.906-14.15,4.594-15.564C420.111,666.084,434.481,701.9,443.541,725.807z"/>
			<path fill="#4DC8F4" d="M334.68,643.462c4.173-16.978,8.398-33.793,12.257-48.696c0,0,4.357-4.686,8.729,0.735
				c4.375,5.422,2.041,13.93,9.723,14.59c7.039,0.589,6.026-11.724,11.575-15.031c6.802-4.043,10.053,13.508,15.695,6.322
				c4.264,9.795,8.729,20.231,13.229,30.89c0,0,0.018,0.038,0.037,0.129c0.313,1.414,2.83,13.818-4.594,15.564
				c-7.901,1.855-13.213-13.396-21.465-10.97c-10.014,2.939-6.467,19.203-17.658,18.265c-11.209-0.955-7.092-18.963-14.04-20.856
				c-6.927-1.873-13.47,9.059-13.47,9.059H334.68z"/>
			<path fill="#FF6A81" d="M392.658,601.382c-5.643,7.186-8.894-10.365-15.695-6.322c-5.549,3.308-4.536,15.62-11.575,15.031
				c-7.682-0.66-5.348-9.168-9.723-14.59c-4.371-5.421-8.729-0.735-8.729-0.735c7.903-30.468,14.335-53.032,15.731-52.905
				C365.719,542.119,378.049,567.899,392.658,601.382z"/>
		</g>
		<circle fill="#FFA4BA" cx="341.488" cy="706.417" r="13.486"/>
		<circle fill="#FFA4BA" cx="414.128" cy="696.731" r="13.486"/>
		<path d="M358.233,684.213c0.178,2.149-1.421,4.038-3.573,4.216c-2.149,0.177-4.037-1.424-4.213-3.573
			c-0.18-2.151,1.421-4.038,3.57-4.216C356.168,680.462,358.056,682.062,358.233,684.213z"/>
		<circle cx="399.152" cy="680.836" r="3.906"/>
		<path d="M368.819,683.109c1.084,1.549,2.498,2.963,4.036,3.772c1.532,0.857,3.261,1.119,5.05,1.014
			c1.811-0.099,3.449-0.66,4.806-1.699c1.362-1.02,2.438-2.697,3.137-4.438l0.051-0.124c0.179-0.45,0.69-0.667,1.139-0.487
			c0.345,0.138,0.553,0.47,0.552,0.818c-0.013,2.42-0.896,4.77-2.682,6.612c-1.759,1.855-4.345,2.828-6.747,2.979
			c-2.412,0.154-5.084-0.396-7.081-1.94c-2.028-1.493-3.365-3.559-3.907-5.913c-0.111-0.472,0.184-0.942,0.657-1.052
			c0.358-0.082,0.718,0.066,0.915,0.351L368.819,683.109z"/>
		<path fill="#FFE000" d="M376.896,489.559c-3.154-0.018-5.852,2.437-8.075,5.938c-1.144-11.561-4.388-20.646-10.615-17.619
			c-5.663,2.753-7.043,15.001-6.442,26.931c-5.678-12.426-13.59-23.822-19.023-18.988c-4.915,4.37-1.763,16.584,3.512,27.558
			c-6.322-3.308-12.461-4.655-14.895-1.235c-6.341,8.917,37.24,36.059,41.759,35.001
			C371.599,545.159,394.268,489.661,376.896,489.559z"/>
		<path fill="#FAAE1A" d="M368.213,488.834c0.714,3.142,1.12,6.344,1.365,9.547c0.225,3.206,0.394,6.422,0.285,9.637
			c-0.181,6.422-0.739,12.849-2.32,19.139c-0.442,1.566-0.868,3.135-1.886,4.632c-0.276,0.362-0.63,0.733-1.134,0.979
			c-0.452,0.248-1.225,0.314-1.782-0.027c-1.061-0.697-1.319-1.625-1.606-2.44c-0.931-3.341-0.667-6.614-0.369-9.837
			c0.725-6.427,1.931-12.822,4.386-18.834c1.238-2.988,2.717-5.904,4.741-8.499c1.026-1.276,2.17-2.539,3.691-3.41
			c0.761-0.414,1.599-0.75,2.487-0.879c0.443-0.056,0.89-0.09,1.335-0.052c0.447,0.005,0.892,0.041,1.337,0.166
			c1.816,0.359,3.345,1.754,4.084,3.316c0.797,1.56,1.131,3.23,1.296,4.869c0.262,3.293-0.059,6.541-0.623,9.721
			c-1.968,12.79-7.585,24.878-15.424,35.001c3.331-5.477,6.152-11.2,8.539-17.088c1.179-2.95,2.199-5.948,3.293-8.928
			c1.063-2.986,1.961-6.049,2.442-9.181c0.523-3.115,0.798-6.297,0.448-9.384c-0.19-1.529-0.557-3.042-1.254-4.319
			c-0.679-1.305-1.816-2.179-3.157-2.466c-2.767-0.626-5.714,0.902-7.709,3.276c-2.014,2.389-3.322,5.332-4.394,8.291
			c-2.049,5.969-3.461,12.223-3.858,18.532c-0.15,3.13-0.213,6.354,0.334,9.262c0.158,0.684,0.429,1.416,0.73,1.628
			c0.173,0.21,0.777,0.07,1.221-0.471c0.924-1.071,1.459-2.636,1.911-4.118c0.84-3.038,1.305-6.202,1.594-9.367
			c0.301-3.168,0.463-6.351,0.495-9.534c0.105-6.362-0.146-12.751-1.174-19.028c-0.032-0.188,0.093-0.366,0.28-0.396
			C367.999,488.539,368.17,488.657,368.213,488.834z"/>
		<path fill="#FAAE1A" d="M356.657,544.579c-9.552-5.373-18.869-11.241-27.338-18.313c-2.089-1.798-4.129-3.679-5.927-5.819
			c-0.88-1.086-1.72-2.224-2.362-3.518c-0.606-1.26-1.123-2.862-0.482-4.403c0.7-1.454,2.087-2.356,3.533-2.663
			c1.446-0.314,2.9-0.207,4.28,0.054c2.766,0.544,5.352,1.626,7.815,2.878c4.897,2.564,9.558,5.615,13.62,9.465
			c1.971,1.974,3.944,4.05,4.998,6.95c0.27,0.716,0.382,1.558,0.293,2.434c-0.201,0.887-0.555,1.753-1.435,2.331
			c-0.913,0.604-2.013,0.446-2.743,0.159c-0.775-0.292-1.402-0.712-1.988-1.155c-2.29-1.814-3.993-4.027-5.657-6.249
			c-1.633-2.243-3.109-4.585-4.482-6.98c-2.729-4.799-5.075-9.823-6.776-15.09c-0.845-2.631-1.547-5.321-1.927-8.079
			c-0.376-2.74-0.507-5.621,0.466-8.375c0.516-1.35,1.377-2.652,2.695-3.477c1.321-0.876,3.146-0.87,4.526-0.283
			c2.807,1.202,4.689,3.431,6.415,5.603c3.365,4.468,5.881,9.414,8.162,14.423c2.23,5.037,4.203,10.189,5.673,15.516
			c0.358,1.333,0.688,2.677,0.937,4.048c0.244,1.373,0.489,2.748,0.4,4.237c-0.027,0.373-0.081,0.759-0.229,1.17
			c-0.125,0.386-0.443,0.913-1.041,1.118c-0.676,0.221-1.263-0.167-1.558-0.445c-0.319-0.303-0.54-0.622-0.742-0.942
			c-0.771-1.281-1.233-2.602-1.669-3.932c-1.677-5.329-2.395-10.826-2.861-16.317c-0.429-5.497-0.538-11.038,0.087-16.546
			c0.324-2.747,0.786-5.504,1.717-8.147c0.936-2.571,2.31-5.352,4.998-6.659c0.172-0.085,0.377-0.013,0.459,0.158
			c0.083,0.166,0.017,0.365-0.146,0.453l-0.011,0.006c-2.322,1.24-3.535,3.856-4.321,6.365c-0.769,2.569-1.191,5.255-1.425,7.951
			c-0.438,5.404-0.276,10.866,0.221,16.28c0.534,5.407,1.351,10.817,2.711,16.025c0.366,1.283,0.779,2.584,1.38,3.679
			c0.263,0.551,0.803,0.981,0.781,0.885c0.15,0.021,0.423-0.598,0.448-1.204c0.146-2.552-0.566-5.283-1.262-7.874
			c-1.477-5.231-3.456-10.337-5.757-15.271c-2.31-4.922-4.931-9.742-8.202-14.01c-0.822-1.061-1.696-2.072-2.646-2.979
			c-0.94-0.914-1.958-1.746-3.079-2.252c-1.107-0.529-2.322-0.607-3.367-0.023c-1.064,0.563-1.884,1.626-2.347,2.812
			c-0.959,2.425-0.797,5.223-0.413,7.86c0.431,2.663,1.181,5.279,2.078,7.839c1.83,5.108,4.178,10.044,6.886,14.751
			c1.365,2.348,2.833,4.637,4.441,6.813c1.601,2.154,3.368,4.271,5.431,5.807c0.983,0.752,2.293,1.281,2.771,0.849
			c0.298-0.178,0.512-0.686,0.601-1.102c0.017-0.49-0.03-1.034-0.243-1.603c-0.833-2.281-2.633-4.411-4.445-6.339
			c-3.697-3.89-8.07-7.266-12.86-9.8c-2.408-1.228-4.935-2.277-7.551-2.792c-1.303-0.257-2.647-0.3-3.875-0.017
			c-1.218,0.264-2.297,1.068-2.783,2.104c-0.433,1.056-0.064,2.35,0.514,3.487c0.592,1.153,1.403,2.227,2.261,3.253
			c1.773,2.018,3.729,3.907,5.797,5.675c4.148,3.522,8.502,6.837,12.985,9.97C347.54,538.501,352.085,541.556,356.657,544.579z"/>
	</g>
</g>
</svg>
