<?xml version="1.0" encoding="utf-8"?>
<!-- Generator: Adobe Illustrator 16.0.0, SVG Export Plug-In . SVG Version: 6.00 Build 0)  -->
<!DOCTYPE svg PUBLIC "-//W3C//DTD SVG 1.1//EN" "http://www.w3.org/Graphics/SVG/1.1/DTD/svg11.dtd">
<svg version="1.1" id="Layer_1" xmlns="http://www.w3.org/2000/svg" xmlns:xlink="http://www.w3.org/1999/xlink" x="0px" y="0px"
	 width="490.857px" height="775.429px" viewBox="0 0 490.857 775.429" enable-background="new 0 0 490.857 775.429"
	 xml:space="preserve">
<g>
	<g>
		<g>
			<path fill="#5C52BA" d="M189.096,254.115c0,0,15.093,2.702,18.453,11.253v0.019c-0.552,0.64-1.103,1.048-1.654,1.12
				c-6.736,0.924-17.545-9.174-17.386-11.342C188.526,254.933,188.723,254.578,189.096,254.115z"/>
			<path fill="#7A65DE" d="M209.167,241.796c5.031,2.044,2.203,18.986-1.618,23.573c-3.36-8.551-18.453-11.253-18.453-11.253
				C192.082,250.4,205.646,240.373,209.167,241.796z"/>
		</g>
		<path fill="#9578F0" d="M292.117,58.382c-46.601-18.375-105.941-5.009-128.001,54.021
			c-26.767,71.633,11.808,119.612,46.604,133.282c34.797,13.67,93.582,6.543,122.408-47.534
			C358.139,151.232,349.918,81.172,292.117,58.382z"/>
		<circle fill="#F280A7" cx="187.522" cy="147.096" r="21.541"/>
		<circle fill="#F280A7" cx="283.225" cy="190.177" r="21.54"/>
		<g>
			<path fill="#FFA4BA" d="M237.433,156.337c8.906,2.773,12.231,12.302,12.231,12.302c-4.924,1.192-10.613,1.156-16.568-1.031
				c-5.831-2.151-9.938-5.884-12.498-10.045C220.598,157.563,228.526,153.563,237.433,156.337z"/>
			<path d="M265.612,153.724c0.817,5.031-5.957,12.516-15.948,14.915c0,0-3.325-9.529-12.231-12.302s-16.835,1.227-16.835,1.227
				c-5.404-8.693-4.248-19.307,1.297-21.439c8.091-3.111,9.122,3.929,19.396,7.858C252.117,148.142,263.957,143.573,265.612,153.724
				z"/>
		</g>
		<path d="M213.439,115.803c2.209-3.922,6.575-6.058,11.363-5.525c1.83,0.204,3.449,0.91,4.819,2.091
			c0.228,0.196,0.344,0.507,0.278,0.821c-0.096,0.462-0.549,0.757-1.011,0.661l-0.143-0.031c-2.509-0.774-4.346-1.603-6.972-0.011
			c0.392,0.062,0.775,0.176,1.141,0.349c2.947,1.395,3.692,5.996,1.666,10.276c-2.025,4.28-5.996,6.48-9.003,5.223
			C211.131,127.799,209.952,121.999,213.439,115.803z"/>
		<path d="M277.855,140.955c2.206-3.922,6.574-6.058,11.361-5.525c1.831,0.204,3.451,0.91,4.82,2.091
			c0.227,0.197,0.344,0.508,0.278,0.822c-0.098,0.461-0.549,0.756-1.011,0.66l-0.144-0.03c-2.509-0.773-4.344-1.604-6.973-0.011
			c0.395,0.062,0.776,0.176,1.143,0.35c2.946,1.395,3.692,5.996,1.667,10.275c-2.026,4.28-5.997,6.48-9.006,5.224
			C275.544,152.951,274.367,147.151,277.855,140.955z"/>
		<path d="M257.113,683.6c-0.15,0-0.304-0.038-0.442-0.118c-21.132-12.137-15.146-58.536-10.776-92.417l0.189-1.464
			c2.653-20.588-1.651-32.732-5.587-39.199c-3.152,2.482-6.239,4.054-9.118,4.563c-7.661,1.353-10.878-1.428-12.111-3.205
			c-1.751-2.528-1.751-6.078,0-9.047c1.759-2.976,4.796-4.556,8.111-4.214c4.319,0.441,8.853,3.287,12.438,7.808
			c0.354,0.446,0.725,0.942,1.104,1.489c15.778-13.75,33.361-50.991,32.495-89.999c-0.707-31.835-14.85-46.328-28.524-60.344
			c-6.063-6.215-12.334-12.641-17.116-20.399c-15.454-25.069-11.961-57.389-9.41-80.987c0.554-5.123,1.076-9.962,1.346-14.182
			c0.635-9.978-0.026-23.716-6.78-32.496l-0.255-0.337c-3.94-5.426-8.25-5.217-8.422-5.206c-0.516,0.053-0.913-0.335-0.948-0.823
			c-0.034-0.487,0.327-0.912,0.814-0.95c0.216-0.016,5.424-0.357,9.993,5.934l0.226,0.298c7.091,9.219,7.801,23.411,7.146,33.693
			c-0.271,4.259-0.797,9.117-1.353,14.26c-2.522,23.343-5.978,55.313,9.156,79.862c4.679,7.592,10.603,13.663,16.875,20.092
			c13.917,14.262,28.308,29.011,29.029,61.547c0.478,21.495-4.855,45.265-14.634,65.211c-5.668,11.567-12.272,20.745-18.679,26.29
			c4.127,6.675,8.71,19.268,5.967,40.567l-0.188,1.466c-4.308,33.384-10.205,79.103,9.897,90.648
			c0.425,0.244,0.572,0.788,0.328,1.213C257.72,683.44,257.421,683.6,257.113,683.6z M226.51,540.23
			c-2.341,0-4.439,1.231-5.711,3.386c-1.398,2.372-1.427,5.17-0.069,7.129c1.707,2.469,5.381,3.34,10.341,2.469
			c2.649-0.469,5.521-1.943,8.479-4.278c-0.39-0.564-0.766-1.071-1.127-1.525c-3.288-4.148-7.381-6.752-11.225-7.145
			C226.968,540.243,226.736,540.23,226.51,540.23z"/>
		<path fill="#FFFFFF" d="M239.925,60.934c-1.343-2.951-20.093-1.036-35.004,8.286c-14.913,9.32-16.705,16.849-11.6,18.433
			c6.007,1.864,15.437-7.738,23.765-11.777C230.81,69.219,243.03,67.769,239.925,60.934z"/>
		<path fill="#FFFFFF" d="M248.622,59.655c-2.319,3.423,1.051,7.135,6.897,7.078c6.183-0.06,9.672-4.007,7.81-7.078
			C261.465,56.584,251.315,55.684,248.622,59.655z"/>
		<path opacity="0.14" fill="#6D3DC8" d="M174.87,182.012c-8.889,11.495,9.63,55.408,61.515,60.946
			c51.884,5.539,87.566-27.394,87.743-50.695c0.179-23.3-8.882,27.86-56.676,23.657C218.468,211.613,196.506,154.029,174.87,182.012
			z"/>
	</g>
	<g>
		<path fill="#53A5FF" d="M349.594,204.676c-25.787-6.835-69.695,3.645-86.369,55.075c-20.118,62.052,9.009,126.363,54.99,131.644
			c37.854,4.349,83.056-32.311,91.651-83.263C418.938,254.36,395.569,216.862,349.594,204.676z"/>
		<g>
			<path fill="#0083C4" d="M325.039,408.82c0,0,5.978-8.502,16.077-4.653C340.979,407.619,326.5,410.418,325.039,408.82z"/>
			<path fill="#2697F1" d="M330.621,388.121c2.846,1.066,10.632,12.594,10.495,16.046c-10.1-3.849-16.077,4.653-16.077,4.653
				c-1.46-1.598-0.897-15.316-0.137-18.205C325.572,388.121,327.701,387.025,330.621,388.121z"/>
		</g>
		<path d="M296.468,662.267c-0.264,0-0.525-0.118-0.701-0.343c-26.741-34.29-11.19-72.866,2.528-106.903
			c2.389-5.927,4.646-11.524,6.628-16.978c9.155-25.179,6.295-42.214,3.268-60.25c-1.469-8.755-2.989-17.81-3.292-28.274
			c-0.9-31.249,16.446-54.153,17.712-55.778c0.299-0.628,1.866-3.646,4.891-4.793c1.85-0.701,3.851-0.568,5.95,0.401
			c0.444,0.207,0.639,0.734,0.434,1.181c-0.206,0.444-0.732,0.637-1.181,0.434c-1.644-0.762-3.177-0.878-4.563-0.357
			c-2.609,0.984-3.94,3.931-3.953,3.96c-0.031,0.071-0.072,0.139-0.121,0.2c-0.185,0.228-18.303,23.113-17.391,54.702
			c0.299,10.344,1.807,19.337,3.268,28.033c3.067,18.272,5.965,35.531-3.352,61.151c-1.992,5.48-4.255,11.094-6.649,17.034
			c-13.539,33.591-28.887,71.664-2.773,105.145c0.302,0.388,0.232,0.946-0.155,1.249
			C296.852,662.205,296.659,662.267,296.468,662.267z"/>
		<circle fill="#FFA4BA" cx="289.425" cy="324.133" r="19.625"/>
		<circle fill="#FFA4BA" cx="366.103" cy="341.352" r="19.625"/>
		<circle cx="302.273" cy="292.482" r="4.919"/>
		<circle cx="362.074" cy="306.113" r="4.919"/>
		<path d="M318.802,297.899c1.479,2.225,3.448,4.273,5.574,5.657c1.082,0.694,2.21,1.282,3.421,1.67
			c1.175,0.477,2.456,0.682,3.701,0.858c2.498,0.329,4.949-0.111,7.317-1.1c2.334-1.023,4.629-2.735,6.568-4.646l0.123-0.122
			c0.5-0.495,1.308-0.49,1.802,0.012c0.377,0.381,0.462,0.942,0.263,1.406c-1.358,3.113-3.587,5.636-6.535,7.491
			c-2.933,1.826-6.645,2.664-10.125,2.252c-3.439-0.417-6.825-1.754-9.429-4.076c-2.606-2.308-4.431-5.217-5.098-8.614
			c-0.135-0.691,0.314-1.36,1.006-1.496c0.519-0.103,1.027,0.128,1.305,0.543L318.802,297.899z"/>
		<path fill="#F6A639" d="M418.268,265.767c2.121-1.586,4.446-2.633,6.821-3.54c2.394-0.857,4.835-1.592,7.471-1.802
			c0.485-0.038,0.909,0.324,0.949,0.809c0.024,0.314-0.12,0.604-0.355,0.779c-2.127,1.571-4.452,2.617-6.821,3.54
			c-2.388,0.874-4.828,1.607-7.471,1.802c-0.486,0.036-0.91-0.33-0.944-0.816C417.893,266.23,418.038,265.942,418.268,265.767z"/>
		<path fill="#F6A639" d="M418.564,278.081c3.056-0.743,6.111-0.911,9.165-0.928c3.056,0.035,6.111,0.201,9.165,0.928
			c0.469,0.111,0.759,0.581,0.647,1.05c-0.08,0.331-0.337,0.572-0.647,0.646c-3.054,0.727-6.109,0.894-9.165,0.928
			c-3.054-0.018-6.109-0.185-9.165-0.928c-0.467-0.114-0.755-0.586-0.641-1.054C418.004,278.395,418.259,278.155,418.564,278.081z"
			/>
		<path fill="#F6A639" d="M418.771,289.291c2.563-0.125,4.984,0.31,7.371,0.891c2.373,0.629,4.715,1.388,6.92,2.69
			c0.42,0.248,0.56,0.79,0.313,1.211c-0.158,0.266-0.438,0.419-0.726,0.433c-2.558,0.108-4.979-0.326-7.37-0.89
			c-2.378-0.614-4.719-1.374-6.92-2.691c-0.42-0.251-0.557-0.795-0.306-1.214C418.21,289.458,418.488,289.307,418.771,289.291z"/>
		<path fill="#FFFFFF" d="M312.383,226.623c-4.906-3.527-16.253-2.868-26.906,7.579c-7.737,7.591-15.393,23.356-8.064,26.566
			c7.327,3.209,12.783-11.538,23.047-17.698C310.726,236.909,318.317,230.889,312.383,226.623z"/>
		<path fill="#FFFFFF" d="M331.5,216.647c-3.198-7.348-17.691,0-14.82,6.457C319.505,229.456,334.75,224.118,331.5,216.647z"/>
		<path opacity="0.14" fill="#6D3DC8" d="M395.143,290.113c-6.792-0.977-18.33,44.102-56.544,57.181
			c-33.071,11.318-50.02-2.796-54.06,9.631c-4.038,12.426,33.725,36.256,61.938,24.626
			C396.386,360.977,410.271,292.288,395.143,290.113z"/>
	</g>
	<g>
		<g>
			<path fill="#FF6A81" d="M221.477,34.288c-0.667-2.016-1.656-3.979-2.825-5.752c-1.144-1.738-2.474-3.452-4.01-4.864
				c-0.843-0.772-1.771-1.522-2.816-1.985c-0.592-0.262-1.183-0.518-1.814-0.662c-0.806-0.184-1.44-0.022-2.224,0.09
				c-1.111,0.16-1.893,1.683-1.528,2.691c0.068,0.236,0.086,0.236,0.053,0.001c-0.033-0.419-0.004-0.235,0.085,0.551
				c0.096,0.294,0.236,0.589,0.396,0.854c-0.17-0.282,0.584,0.731,0.582,0.746c0.192,0.248,0.382,0.498,0.588,0.735
				c0.594,0.688,1.274,1.283,1.948,1.892c0.645,0.583,1.266,1.185,1.849,1.828c0.292,0.321,0.568,0.654,0.848,0.984
				c0.04,0.049,0.058,0.068,0.083,0.098c0.016,0.02,0.02,0.027,0.038,0.052c0.129,0.175,0.258,0.35,0.383,0.528
				c1.031,1.46,1.851,3.023,2.592,4.646c0.021,0.047,0.127,0.297,0.172,0.402c0.047,0.12,0.101,0.259,0.112,0.291
				c0.155,0.406,0.297,0.816,0.43,1.23c0.336,1.068,0.599,2.096,1.043,3.13c0.449,1.053,2.042,1.591,3.082,1.254
				c1.242-0.402,1.855-1.379,2.003-2.631C222.775,38.452,222.088,36.135,221.477,34.288z"/>
			<path fill="#FF6A81" d="M207.374,25.958c-0.047-0.063-0.1-0.123-0.147-0.185C207.343,25.923,207.374,25.961,207.374,25.958z"/>
		</g>
		<path fill="#FF6A81" d="M238.276,24.703c-0.208-1.708-0.479-3.408-0.735-5.109c-0.266-1.768-0.334-3.565-1.386-5.069
			c-0.732-1.045-1.785-1.66-3.098-1.484c-1.184,0.159-2.284,1.028-2.583,2.226c-0.321,1.288-0.266,2.28,0,3.578
			c0.149,0.728,0.323,1.452,0.484,2.178c0.349,1.573,0.679,3.15,1.073,4.712c0.806,3.192,1.422,6.491,2.715,9.522
			c0.408,0.958,1.778,1.356,2.705,1.101c1.04-0.286,1.721-1.253,1.759-2.31C239.325,30.956,238.651,27.772,238.276,24.703z"/>
		<path fill="#FF6A81" d="M263.84,10.637c-0.716-1.046-1.685-1.358-2.895-1.178c-2.397,0.358-3.453,3.892-4.145,5.839
			c-0.717,2.021-1.324,4.067-1.866,6.141c-1.088,4.169-1.793,8.326-2.168,12.618c-0.192,2.2,3.111,2.469,3.724,0.504
			c1.214-3.892,2.537-7.786,3.998-11.591c0.672-1.753,1.393-3.492,2.127-5.221C263.463,15.759,265.246,12.695,263.84,10.637z"/>
	</g>
</g>
<g>
	<path opacity="0.13" fill="#5B2B64" d="M243.296,729.081c0,7.366,42.281,26.16,93.142,29.96
		c60.147,4.497,80.794-10.569,79.795-20.243c-0.758-7.342-29.587-23.056-80.589-23.056S243.296,721.715,243.296,729.081z"/>
	<g>
		<g>
			<path fill="#6D35A3" d="M345.505,499.391c6.685,0.267,20.339,62.649,31.413,122.898c0,0-4.746-9.049-13.208-10.098
				c-11.058-1.351-13.582,2.578-21.279-1.795c-7.823-4.428,1.795-41.778-10.508-47.682c-11.911-5.724-21.156,5.582-21.156,5.582
				C328.242,529.701,343.017,499.284,345.505,499.391z"/>
			<path fill="#53A5FF" d="M376.918,622.289c1.601,8.675,3.148,17.299,4.604,25.689c0,0-10.114-14.649-20.889-14.649
				c-13.334,0-19.662,10.916-31.537,1.44c-16.107-12.889,0-47.45-9.458-51.094c-9.228-3.538-18.685,7.057-19.183,7.644
				c3.484-7.875,6.951-15.607,10.311-23.022c0,0,9.245-11.306,21.156-5.582c12.303,5.903,2.685,43.254,10.508,47.682
				c7.697,4.373,10.222,0.444,21.279,1.795C372.172,613.24,376.918,622.289,376.918,622.289z"/>
			<path fill="#00D8D3" d="M389.451,696.369h-0.018c0,0-11.626-17.636-24.94-13.154c-19.202,6.47-17.441,23.857-35.131,26.15
				c-23.698,3.094-25.386-30.239-38.08-36.906c-12.105-6.364-27.502,5.386-28.16,5.901c10.399-25.297,24.071-57.191,37.316-87.021
				c0,0,0,0,0.018-0.02c0.498-0.587,9.955-11.182,19.183-7.644c9.458,3.644-6.649,38.205,9.458,51.094
				c11.875,9.476,18.203-1.44,31.537-1.44c10.774,0,20.889,14.649,20.889,14.649C384.616,665.773,387.354,682.52,389.451,696.369z"
				/>
			<path fill="#FFE000" d="M389.451,696.369c3.201,21.299,4.908,35.77,4.125,36.748c-3.199,4.018-10.114,13.439-63.217,11.893
				c-53.104-1.529-83.325-10.559-84.838-18.969c-0.425-2.382,6.828-21.476,17.584-47.681c0,0,0,0,0.017,0
				c0.658-0.516,16.055-12.266,28.16-5.901c12.694,6.667,14.382,40,38.08,36.906c17.689-2.293,15.929-19.681,35.131-26.15
				c13.314-4.481,24.94,13.154,24.94,13.154H389.451z"/>
		</g>
		<g>
			<path fill="#FFE000" d="M381.58,458.567c-1.221-2.731-3.254-3.435-5.7-2.785c1.223-6.585-0.021-12.241-5.674-14.729
				c-4.313-1.897-8.406-0.11-12.063,3.671c1.415-13.587-0.42-24.358-9.552-21.602c-13.842,4.179-16.56,29.292-15.384,47.275
				c-4.448-8.31-10.411-14.792-13.731-7.66c-6.595,14.179,16.556,35.578,22.443,37.087
				C358.371,504.038,390.71,479.001,381.58,458.567z"/>
			<path fill="#FAAE1A" d="M334.175,494.675c-3.701-2.987-7.052-6.431-9.976-10.232c-2.835-3.846-5.357-8.085-6.424-12.95
				c-0.462-2.431-0.489-5.017,0.226-7.48c0.216-0.603,0.408-1.214,0.653-1.81c0.274-0.587,0.603-1.166,1.022-1.72
				c0.434-0.546,0.979-1.073,1.692-1.43c0.707-0.36,1.564-0.485,2.326-0.376c1.54,0.237,2.683,1.043,3.672,1.853
				c0.993,0.829,1.83,1.76,2.618,2.715c1.537,1.938,2.816,4.011,3.988,6.13c2.286,4.268,4.264,8.681,5.453,13.448
				c0.286,1.2,0.531,2.415,0.592,3.741c0.009,0.672,0.028,1.365-0.326,2.247c-0.179,0.431-0.623,1.009-1.286,1.206
				c-0.274,0.109-0.752,0.12-1.066,0.02c-0.353-0.103-0.583-0.263-0.784-0.422c-0.727-0.653-0.975-1.259-1.273-1.859
				c-0.262-0.599-0.487-1.194-0.668-1.788c-0.377-1.186-0.656-2.372-0.899-3.561c-0.948-4.75-1.348-9.532-1.558-14.316
				c-0.212-4.783-0.15-9.58,0.249-14.359c0.366-4.783,1.039-9.553,2.212-14.27c1.21-4.677,2.951-9.44,6.385-13.359
				c1.732-1.913,3.938-3.556,6.481-4.462c1.257-0.462,2.635-0.772,4.146-0.717c1.5,0.045,3.122,0.611,4.328,1.611
				c1.231,0.984,2.014,2.264,2.56,3.509c0.554,1.257,0.88,2.525,1.123,3.779c0.474,2.512,0.576,4.989,0.541,7.434
				c-0.307,9.759-2.157,19.191-4.59,28.459c-1.241,4.628-2.658,9.21-4.373,13.712c-0.861,2.252-1.823,4.469-3.009,6.641
				c-0.63,1.087-1.201,2.156-2.266,3.215c-0.271,0.259-0.589,0.538-1.115,0.761c-0.55,0.232-1.382,0.243-1.958-0.174
				c-1.058-0.838-1.097-1.67-1.271-2.338c-0.384-2.709,0.018-5.066,0.375-7.479c0.399-2.389,0.942-4.732,1.564-7.053
				c1.208-4.65,2.795-9.179,4.578-13.641c1.855-4.425,3.822-8.859,6.686-12.897c1.458-1.987,3.123-3.908,5.261-5.429
				c2.109-1.493,4.891-2.558,7.735-2.21c1.396,0.17,2.758,0.604,3.899,1.304l0.886,0.489l0.813,0.632
				c0.564,0.395,1.035,0.901,1.484,1.43c1.824,2.107,2.654,4.847,2.786,7.402c0.272,5.183-1.315,9.942-3.134,14.426
				c-1.913,4.471-4.331,8.668-7.072,12.643c-2.772,3.947-5.81,7.744-9.756,10.819c-1.022,0.736-2.069,1.469-3.446,1.889
				c-0.313,0.134-0.715,0.174-1.101,0.221c-0.368,0.052-0.811,0.067-1.315-0.104c-0.491-0.134-1.018-0.534-1.278-0.995
				c-0.298-0.463-0.366-0.9-0.429-1.309c-0.096-1.567,0.283-2.766,0.665-3.971c0.401-1.188,0.884-2.317,1.404-3.422
				c2.146-4.373,4.649-8.502,7.53-12.393c2.871-3.891,6.069-7.576,10.043-10.634c2.004-1.48,4.216-2.951,7.252-3.23
				c1.502-0.145,3.324,0.486,4.395,1.665c1.125,1.147,1.574,2.505,2.001,3.656c1.738,4.868,1.261,10.269-0.563,14.859
				c-1.787,4.654-4.767,8.649-8.122,12.118c-3.393,3.451-7.223,6.448-11.42,8.79c-4.188,2.321-8.709,4.154-13.435,4.811
				c4.636-1.081,8.957-3.141,12.897-5.699c3.919-2.598,7.551-5.627,10.633-9.131c3.088-3.48,5.625-7.456,7.147-11.736
				c1.538-4.26,1.757-8.938,0.154-13.033c-0.413-1.048-0.814-1.992-1.41-2.527c-0.579-0.549-1.219-0.762-2.081-0.684
				c-1.752,0.161-3.721,1.416-5.486,2.729c-1.79,1.354-3.46,2.951-5.049,4.629c-1.599,1.67-3.154,3.408-4.614,5.228
				c-2.899,3.644-5.681,7.472-7.759,11.614c-0.518,1.031-0.995,2.078-1.379,3.132c-0.369,1.03-0.694,2.174-0.61,2.99
				c0.029,0.173,0.065,0.34,0.107,0.371c0.034,0.056,0.014,0.042,0.096,0.064c0.055,0.029,0.227,0.043,0.438-0.004
				c0.203-0.036,0.401-0.025,0.638-0.139c0.909-0.268,1.859-0.904,2.744-1.561c3.549-2.795,6.53-6.521,9.165-10.351
				c2.64-3.856,4.874-7.999,6.638-12.292c1.672-4.281,3.027-8.857,2.698-13.231c-0.16-2.168-0.883-4.192-2.216-5.663
				c-0.331-0.371-0.668-0.735-1.099-1.009l-0.598-0.456l-0.686-0.351c-0.887-0.542-1.849-0.832-2.808-0.948
				c-1.924-0.229-3.893,0.467-5.637,1.694c-1.763,1.207-3.366,2.818-4.776,4.606c-2.87,3.556-5.241,7.663-7.109,11.963
				c-1.902,4.297-3.331,8.808-4.488,13.359c-0.547,2.283-1.016,4.587-1.338,6.895c-0.295,2.271-0.553,4.703-0.194,6.705
				c0.063,0.467,0.353,0.891,0.271,0.772c-0.076-0.058-0.245-0.078-0.259-0.059c0.02-0.015,0.179-0.109,0.321-0.273
				c0.618-0.632,1.208-1.679,1.724-2.659c1.044-2.026,1.893-4.214,2.728-6.396c1.631-4.393,2.99-8.914,4.172-13.471
				c1.178-4.562,2.172-9.171,2.922-13.808c0.761-4.632,1.236-9.319,1.174-13.936c-0.029-2.303-0.21-4.596-0.675-6.743
				c-0.445-2.125-1.296-4.189-2.577-5.209c-1.208-1.045-3.071-1.021-5.063-0.333c-1.972,0.618-3.748,1.821-5.26,3.362
				c-3.04,3.111-5.084,7.377-6.495,11.778c-1.431,4.427-2.198,9.096-2.632,13.776c-0.738,9.361-0.438,18.939,1.479,28.09
				c0.252,1.134,0.542,2.259,0.899,3.33c0.174,0.542,0.382,1.054,0.603,1.54c0.212,0.462,0.522,0.944,0.7,1.075
				c0.141,0.076-0.12-0.06-0.205,0.001c-0.087,0.024-0.122,0.104-0.066-0.003c0.094-0.226,0.147-0.752,0.113-1.261
				c-0.064-1.049-0.299-2.174-0.583-3.276c-1.221-4.43-3.044-8.806-5.258-12.896c-1.112-2.042-2.342-4.024-3.746-5.821
				c-0.696-0.896-1.438-1.757-2.252-2.474c-0.8-0.716-1.712-1.303-2.542-1.441c-1.579-0.387-2.976,1.739-3.578,3.823
				c-0.666,2.092-0.72,4.371-0.36,6.609c0.753,4.511,2.969,8.771,5.569,12.667C327.663,487.758,330.766,491.364,334.175,494.675z"/>
		</g>
		<path d="M336.994,656.577c1.026-3.42,3.624-5.899,6.763-6.429c1.199-0.203,2.314,0.018,3.317,0.649
			c0.165,0.105,0.272,0.319,0.263,0.572c-0.016,0.37-0.278,0.683-0.585,0.7l-0.096,0.005c-1.694-0.099-2.962-0.373-4.493,1.354
			c0.259-0.031,1.177,0.229,1.703,0.644c1.989,1.571,1.88,4.026,1.181,6.899c-0.707,2.91-3.098,4.953-5.158,4.556
			C337.572,665.08,335.375,661.979,336.994,656.577z"/>
		<path d="M301.483,647.346c1.026-3.418,3.624-5.898,6.763-6.429c1.199-0.203,2.314,0.02,3.315,0.651
			c0.167,0.104,0.274,0.319,0.263,0.571c-0.016,0.37-0.276,0.684-0.583,0.699l-0.096,0.006c-1.694-0.1-2.962-0.372-4.493,1.354
			c0.259-0.029,1.177,0.229,1.703,0.645c1.989,1.571,1.88,4.027,1.181,6.899c-0.707,2.909-3.098,4.953-5.158,4.556
			C302.062,655.85,299.864,652.747,301.483,647.346z"/>
		<path d="M313.47,658.051c-0.134,2.089-0.076,4.292,0.408,6.085c0.497,1.867,1.481,2.921,3.042,3.316
			c0.762,0.183,1.462,0.186,2.116-0.061c0.665-0.263,1.313-0.83,1.925-1.529c1.196-1.435,2.169-3.421,2.943-5.37l0.027-0.069
			c0.174-0.438,0.669-0.651,1.106-0.478c0.351,0.141,0.557,0.489,0.534,0.847c-0.156,2.388-0.674,4.712-2.076,6.91
			c-0.692,1.089-1.676,2.134-3.042,2.826c-1.404,0.676-3.029,0.685-4.42,0.363c-1.37-0.337-2.736-1.169-3.686-2.316
			c-0.95-1.174-1.386-2.54-1.564-3.817c-0.364-2.589,0.149-4.933,1.051-7.156c0.177-0.436,0.673-0.647,1.109-0.471
			c0.349,0.141,0.552,0.486,0.531,0.842L313.47,658.051z"/>
		<circle fill="#FF6A81" cx="345.386" cy="681.676" r="12.308"/>
		<circle fill="#FF6A81" cx="288.618" cy="668.655" r="12.309"/>
	</g>
</g>
<g>
	<path fill="#FFD500" d="M81.421,431.19c2.828,2.465,7.042,15.326,7.042,15.326s15.327,5.801,15.327,7.872
		c0,2.07-11.185,9.94-11.185,9.94s0.415,16.153-2.071,17.397c-2.484,1.243-13.67-10.563-13.67-10.563s-15.948,8.928-18.433,6.421
		c-2.486-2.506,1.863-16.57,1.863-16.57s-8.353-11.84-7.457-14.083c0.83-2.071,14.914-2.071,14.914-2.071
		S79.054,429.126,81.421,431.19z"/>
	<g>
		<g>
			<line fill="#FFFFFF" x1="203.223" y1="455.19" x2="201.35" y2="443.36"/>
			<path d="M203.221,456.079c-0.429,0-0.807-0.313-0.876-0.75l-1.874-11.83c-0.076-0.484,0.256-0.938,0.74-1.017
				c0.474-0.077,0.938,0.253,1.017,0.739l1.874,11.83c0.076,0.484-0.256,0.938-0.74,1.017
				C203.314,456.076,203.268,456.079,203.221,456.079z"/>
		</g>
		<g>
			<line fill="#FFFFFF" x1="209.82" y1="456.411" x2="215.131" y2="446.881"/>
			<path d="M209.82,457.3c-0.147,0-0.296-0.036-0.433-0.113c-0.429-0.237-0.583-0.779-0.344-1.208l5.311-9.529
				c0.238-0.431,0.781-0.582,1.209-0.344c0.429,0.237,0.583,0.779,0.344,1.208l-5.312,9.529
				C210.435,457.135,210.131,457.3,209.82,457.3z"/>
		</g>
		<g>
			<line fill="#FFFFFF" x1="198.539" y1="458.477" x2="190.104" y2="450.425"/>
			<path d="M198.539,459.365c-0.221,0-0.441-0.081-0.615-0.246l-8.434-8.052c-0.354-0.339-0.368-0.901-0.028-1.257
				c0.337-0.353,0.899-0.367,1.257-0.028l8.435,8.052c0.354,0.339,0.368,0.901,0.027,1.258
				C199.008,459.273,198.773,459.365,198.539,459.365z"/>
		</g>
		<g>
			<line fill="#FFFFFF" x1="196.977" y1="463.077" x2="186.356" y2="463.077"/>
			<path d="M196.977,463.967h-10.62c-0.491,0-0.889-0.397-0.889-0.89c0-0.491,0.397-0.889,0.889-0.889h10.62
				c0.491,0,0.889,0.397,0.889,0.889C197.865,463.569,197.468,463.967,196.977,463.967z"/>
		</g>
		<g>
			<line fill="#FFFFFF" x1="198.539" y1="468.007" x2="191.665" y2="478.523"/>
			<path d="M191.665,479.413c-0.168,0-0.337-0.047-0.485-0.145c-0.412-0.269-0.526-0.819-0.259-1.23l6.873-10.516
				c0.272-0.412,0.824-0.523,1.23-0.259c0.412,0.269,0.526,0.819,0.259,1.23l-6.873,10.516
				C192.238,479.271,191.955,479.413,191.665,479.413z"/>
		</g>
		<g>
			<line fill="#FFFFFF" x1="205.174" y1="470.637" x2="208.221" y2="483.453"/>
			<path d="M208.221,484.342c-0.402,0-0.767-0.274-0.864-0.685l-3.047-12.815c-0.114-0.478,0.181-0.957,0.66-1.069
				c0.467-0.122,0.954,0.18,1.069,0.659l3.047,12.816c0.114,0.478-0.181,0.956-0.66,1.069
				C208.358,484.335,208.289,484.342,208.221,484.342z"/>
		</g>
		<g>
			<line fill="#FFFFFF" x1="210.877" y1="468.007" x2="221.341" y2="475.73"/>
			<path d="M221.341,476.619c-0.184,0-0.37-0.057-0.527-0.174l-10.464-7.722c-0.396-0.292-0.479-0.85-0.188-1.243
				c0.292-0.396,0.853-0.476,1.243-0.188l10.464,7.722c0.396,0.292,0.479,0.85,0.188,1.243
				C221.883,476.494,221.613,476.619,221.341,476.619z"/>
		</g>
		<g>
			<line fill="#FFFFFF" x1="212.278" y1="461.928" x2="223.136" y2="461.673"/>
			<path d="M212.278,462.817c-0.48,0-0.877-0.384-0.889-0.868c-0.013-0.491,0.377-0.897,0.868-0.91l10.857-0.255
				c0.007,0,0.014,0,0.021,0c0.481,0,0.877,0.384,0.89,0.868c0.012,0.491-0.377,0.897-0.868,0.909l-10.858,0.256
				C212.292,462.817,212.285,462.817,212.278,462.817z"/>
		</g>
	</g>
	<path fill="#9578F0" d="M48.088,104.137c-2.583,0.608,7.146,14.231,10.874,13.174s21.127-15.038,20.194-21.252
		c-0.932-6.213-10.251-8.316-12.116-7.886S63.932,100.409,48.088,104.137z"/>
	<path fill="#00D8D3" d="M27.897,129.651c-2.003-1.394-7.768,12.29-5.283,14.154c2.486,1.865,21.523,13.415,29.552,9.321
		c1.827-0.933-1.986-8.003,3.691-17.088C57.411,133.553,39.703,137.865,27.897,129.651z"/>
	<path fill="#00D8D3" d="M100.635,150.77c-3.866,3.261-2.271,13.359,9.535,12.116C121.976,161.644,113.158,140.208,100.635,150.77z"
		/>
	<path fill="#00D8D3" d="M29.093,268.756c-3.696,9.414,33.776,21.526,35.877,18.385c2.103-3.142,3.293-8.276,3.884-9.995
		c0.592-1.719-21.733-12.397-26.903-22.065C40.921,253.153,30.723,264.603,29.093,268.756z"/>
	<path fill="#FF6A81" d="M133.221,266.54c-4.948,3.666-4.143,18.227,8.285,14.913C153.933,278.139,144.405,258.255,133.221,266.54z"
		/>
	<path fill="#FF6A81" d="M175.138,337.897c-5.054,1.858-10.77,9.154-10.77,12.489c0,3.334,7.042,16.495,10.77,16.335
		c3.729-0.16,7.456-5.13,7.456-7.202S178.865,336.527,175.138,337.897z"/>
	<path fill="#9BCA3C" d="M82.245,199.335c-1.293,0.197-13.604,12.902-12.375,15.471c1.229,2.569,20.63,2.547,25.104,11.712
		c4.474,9.165,1.127,17.583,11.917,21.86c3.056,1.21,10.029-5.276,10.029-5.276s-9.892-9.927-9.082-21.106
		C108.649,210.817,88.863,198.328,82.245,199.335z"/>
	<path fill="#9578F0" d="M94.649,336.796c-3.226,1.923,11.452,21.785,13.151,22.214c1.701,0.43,12.057-3.106,12.471-5.274
		c0.415-2.167-4.556-21.636-4.556-24.95C115.715,325.473,97.198,335.279,94.649,336.796z"/>
	<path fill="#00D8D3" d="M200.834,397.892c-3.553,2.017-3.314,16.37,5.8,13.522C215.747,408.565,211.604,391.773,200.834,397.892z"
		/>
	<path fill="#9BCA3C" d="M129.09,392.212c-5.269,2.931-2.682,13.462,6.016,9.113C143.806,396.977,138.401,387.034,129.09,392.212z"
		/>
	<path fill="#FF6A81" d="M63.737,374.938c-1.501-1.651-29.08-12.529-29.66-9.993c-0.58,2.537,1.208,19.981,4.872,21.2
		c3.661,1.221,23.545-1.055,24.788-3.024C64.979,381.152,67.88,379.496,63.737,374.938z"/>
	<path fill="#00D8D3" d="M84.557,554.52c-0.066-0.202-0.149-0.396-0.249-0.58c-0.208-0.353-0.488-0.632-0.84-0.841
		c-0.364-0.212-0.758-0.319-1.182-0.321c-0.422,0.002-0.816,0.109-1.182,0.321c-0.351,0.209-0.632,0.488-0.84,0.841
		c-0.05,0.096-0.094,0.194-0.128,0.299c-0.106,0.184-0.16,0.382-0.16,0.594c-0.023,0.159-0.043,0.235-0.042,0.362
		c0.002,0.04,0.002,0.08,0.003,0.122c0.002,0.085,0.004,0.17,0.005,0.255c0.003,0.167,0.007,0.333,0.01,0.5
		c-0.012,0.321,0.056,0.621,0.202,0.899c0.094,0.288,0.255,0.54,0.482,0.75c0.212,0.228,0.462,0.389,0.752,0.482
		c0.278,0.146,0.576,0.214,0.897,0.201c0.207-0.027,0.413-0.056,0.622-0.083c0.394-0.111,0.738-0.311,1.029-0.601
		c0.122-0.156,0.243-0.314,0.365-0.473c0.21-0.362,0.318-0.755,0.318-1.177c0.003-0.167,0.009-0.333,0.012-0.5
		c0.001-0.082,0.003-0.161,0.005-0.243c0-0.042,0.002-0.082,0.002-0.121c0.001-0.021,0.001-0.042,0.001-0.062
		C84.613,554.936,84.585,554.728,84.557,554.52z"/>
	<g>
		<path fill="#FF6A81" d="M72.442,586.962c0.009-0.003,0.01-0.002,0.021-0.003c0.001-0.002,0.005-0.002,0.007-0.004
			c-0.018,0-0.045-0.002-0.063-0.002C72.42,586.955,72.43,586.96,72.442,586.962z"/>
		<path fill="#FF6A81" d="M72.015,586.868c-0.003,0-0.007-0.002-0.012-0.003c0.005,0.003,0.011,0.007,0.016,0.01
			c0.005,0.002,0.009,0.002,0.014,0.004C72.029,586.877,72.021,586.872,72.015,586.868z"/>
		<path fill="#FF6A81" d="M80.434,583.859c-0.064-0.275-0.175-0.529-0.285-0.788c-0.158-0.375-0.351-0.667-0.681-0.92
			c-0.33-0.255-0.698-0.366-1.094-0.471c-0.7-0.184-1.391-0.387-2.102-0.518c-1.599-0.29-3.356-0.409-4.899,0.2
			c-1.491,0.587-2.887,1.666-3.575,3.154c-0.698,1.509-0.878,3.34,0.054,4.809c0.842,1.327,2.439,2.367,4.05,2.353
			c0.655-0.007,1.304-0.159,1.877-0.442c1.366,0.09,2.795-0.333,3.891-1.111C79.677,588.698,81.005,586.366,80.434,583.859z"/>
	</g>
	<g>
		<path fill="#FF6A81" d="M9.619,201.698c0.042-0.056,0.085-0.109,0.128-0.164c0.003-0.003,0.003-0.009,0.007-0.012L9.619,201.698z"
			/>
		<path fill="#FF6A81" d="M15.017,198.871c-0.078-0.232-0.2-0.555-0.354-0.781c-0.162-0.233-0.335-0.482-0.545-0.676
			c-0.47-0.433-0.901-0.663-1.489-0.891c-0.38-0.147-0.799-0.196-1.203-0.223c-0.386-0.027-0.806,0.018-1.167,0.152
			c-0.542,0.201-0.778,0.332-1.219,0.707c-0.035,0.03-0.069,0.059-0.101,0.092c-0.156,0.164-0.313,0.369-0.434,0.563
			c-0.147,0.24-0.262,0.512-0.323,0.788c-0.052,0.242-0.082,0.49-0.089,0.734c-0.01,0.389,0.124,0.782,0.304,1.123
			c0.192,0.365,0.491,0.59,0.823,0.816c0.162,0.109,0.349,0.185,0.543,0.234c-0.003,0.003-0.003,0.009-0.009,0.014
			c0.003-0.005,0.007-0.009,0.01-0.014c0.002,0,0.002,0,0.002,0c-0.007,0.008-0.014,0.017-0.019,0.026
			c-0.188,0.183-0.33,0.392-0.41,0.636c-0.132,0.251-0.193,0.521-0.181,0.811c0,0.516,0.229,1.133,0.616,1.488
			c0.401,0.368,0.927,0.641,1.488,0.616c0.186-0.025,0.374-0.05,0.559-0.076c0.356-0.1,0.667-0.28,0.929-0.541
			c0.309-0.248,0.601-0.494,0.855-0.799c0.34-0.406,0.688-0.831,0.939-1.3c0.163-0.307,0.299-0.635,0.417-0.961
			c0.125-0.35,0.162-0.724,0.203-1.091c0.019-0.165,0.026-0.327,0.011-0.492C15.147,199.512,15.121,199.174,15.017,198.871z"/>
	</g>
</g>
<g>
	<g>
		<path fill="#8C96FF" d="M428.688,588.573c-0.734,0.982-1.587,1.71-2.482,2.344c-0.889,0.651-1.835,1.175-2.817,1.62
			c-0.983,0.44-1.999,0.815-3.071,1.063c-1.066,0.262-2.172,0.438-3.391,0.367c-0.794-0.045-1.399-0.726-1.354-1.519
			c0.018-0.299,0.125-0.571,0.295-0.792c0.741-0.971,1.596-1.69,2.491-2.328c0.886-0.652,1.832-1.179,2.81-1.635
			c0.978-0.455,1.991-0.83,3.064-1.078c1.063-0.266,2.172-0.438,3.397-0.354c0.797,0.054,1.399,0.745,1.346,1.543
			C428.953,588.094,428.851,588.356,428.688,588.573z"/>
		<path fill="#8C96FF" d="M426.226,582.618c-1.147,0.236-2.208,0.205-3.235,0.076c-1.033-0.11-2.023-0.354-2.984-0.679
			c-0.962-0.33-1.898-0.729-2.792-1.26c-0.897-0.518-1.768-1.122-2.551-1.986c-0.541-0.598-0.496-1.52,0.101-2.061
			c0.203-0.185,0.452-0.303,0.703-0.353c1.145-0.221,2.202-0.187,3.231-0.062c1.033,0.109,2.024,0.353,2.989,0.664
			c0.966,0.315,1.903,0.715,2.797,1.244c0.899,0.514,1.768,1.125,2.545,2.002c0.539,0.605,0.483,1.535-0.123,2.073
			C426.709,582.453,426.469,582.568,426.226,582.618z"/>
		<path fill="#8C96FF" d="M434.169,592.717c0.045,1.274-0.163,2.43-0.464,3.539c-0.285,1.116-0.694,2.173-1.184,3.194
			c-0.493,1.019-1.053,2.007-1.738,2.934c-0.672,0.935-1.427,1.828-2.429,2.606c-0.62,0.484-1.516,0.371-1.998-0.25
			c-0.194-0.25-0.292-0.544-0.299-0.839c-0.033-1.268,0.181-2.418,0.479-3.529c0.282-1.118,0.69-2.176,1.168-3.203
			c0.479-1.024,1.038-2.013,1.723-2.941c0.668-0.936,1.429-1.826,2.442-2.599c0.63-0.479,1.527-0.356,2.007,0.272
			C434.063,592.146,434.158,592.433,434.169,592.717z"/>
		<path fill="#8C96FF" d="M439.528,592.514c0.838,0.919,1.406,1.906,1.873,2.921c0.484,1.009,0.835,2.052,1.103,3.116
			c0.262,1.065,0.451,2.149,0.507,3.268c0.071,1.114,0.052,2.251-0.232,3.456c-0.181,0.771-0.953,1.249-1.725,1.068
			c-0.297-0.069-0.55-0.228-0.739-0.439c-0.824-0.922-1.387-1.912-1.857-2.926c-0.488-1.007-0.839-2.05-1.118-3.111
			c-0.276-1.063-0.467-2.146-0.524-3.264c-0.074-1.114-0.049-2.253,0.248-3.462c0.191-0.772,0.973-1.244,1.745-1.056
			C439.096,592.156,439.341,592.31,439.528,592.514z"/>
		<path fill="#8C96FF" d="M443.448,588.469c1.314-0.087,2.521,0.087,3.689,0.354c1.174,0.252,2.295,0.632,3.382,1.09
			c1.085,0.464,2.143,0.997,3.146,1.658c1.009,0.646,1.983,1.377,2.853,2.359c0.516,0.585,0.46,1.478-0.123,1.995
			c-0.248,0.219-0.552,0.335-0.857,0.353c-1.311,0.071-2.516-0.106-3.685-0.372c-1.175-0.25-2.297-0.628-3.389-1.074
			c-1.09-0.451-2.147-0.982-3.152-1.641c-1.011-0.643-1.981-1.381-2.844-2.377c-0.515-0.592-0.45-1.489,0.142-2.004
			C442.854,588.601,443.149,588.488,443.448,588.469z"/>
		<path fill="#8C96FF" d="M443.038,579.863c0.747-1.1,1.631-1.953,2.566-2.719c0.927-0.781,1.924-1.441,2.962-2.026
			c1.04-0.58,2.116-1.097,3.262-1.491c1.14-0.41,2.323-0.738,3.641-0.83c0.778-0.054,1.452,0.533,1.506,1.31
			c0.022,0.333-0.071,0.647-0.248,0.902c-0.754,1.085-1.641,1.935-2.575,2.703c-0.925,0.783-1.92,1.444-2.951,2.04
			c-1.035,0.594-2.111,1.111-3.255,1.509c-1.138,0.411-2.325,0.734-3.649,0.814c-0.781,0.045-1.453-0.551-1.5-1.332
			C442.776,580.419,442.868,580.113,443.038,579.863z"/>
		<path fill="#8C96FF" d="M437.973,574.417c-0.153-1.404-0.038-2.719,0.174-4.002c0.194-1.288,0.521-2.533,0.929-3.75
			c0.413-1.215,0.896-2.408,1.512-3.558c0.6-1.154,1.288-2.277,2.234-3.315c0.52-0.569,1.399-0.609,1.967-0.093
			c0.265,0.242,0.415,0.563,0.448,0.893c0.139,1.397,0.02,2.712-0.189,3.995c-0.192,1.288-0.517,2.535-0.913,3.755
			c-0.399,1.221-0.882,2.413-1.494,3.563c-0.598,1.155-1.292,2.278-2.252,3.313c-0.526,0.564-1.412,0.598-1.978,0.073
			C438.155,575.053,438.007,574.738,437.973,574.417z"/>
		<path fill="#8C96FF" d="M431.629,577.047c-1.038-0.708-1.828-1.549-2.528-2.438c-0.715-0.88-1.306-1.826-1.821-2.811
			c-0.512-0.988-0.958-2.011-1.279-3.099c-0.337-1.08-0.592-2.203-0.605-3.454c-0.009-0.789,0.625-1.436,1.415-1.445
			c0.309-0.004,0.597,0.094,0.833,0.258c1.026,0.716,1.811,1.56,2.512,2.446c0.718,0.881,1.31,1.825,1.837,2.805
			c0.524,0.98,0.971,2.001,1.296,3.088c0.34,1.078,0.588,2.205,0.59,3.462c0,0.795-0.643,1.439-1.436,1.439
			C432.139,577.299,431.859,577.207,431.629,577.047z"/>
	</g>
	<g>
		<path fill="#FF8B4B" d="M453.859,51.801c1.082,0.873,1.912,1.868,2.648,2.91c0.753,1.034,1.382,2.129,1.934,3.262
			c0.547,1.135,1.027,2.302,1.382,3.531c0.37,1.223,0.656,2.485,0.698,3.868c0.022,0.771-0.584,1.415-1.354,1.438
			c-0.351,0.01-0.677-0.111-0.929-0.318c-1.069-0.879-1.893-1.877-2.634-2.917c-0.755-1.033-1.386-2.127-1.948-3.254
			c-0.559-1.129-1.041-2.296-1.397-3.524c-0.373-1.22-0.654-2.486-0.682-3.875c-0.016-0.774,0.599-1.415,1.373-1.432
			C453.294,51.483,453.611,51.601,453.859,51.801z"/>
		<path fill="#FF8B4B" d="M447.604,54.564c0.295,1.267,0.317,2.466,0.239,3.643c-0.061,1.179-0.255,2.326-0.534,3.452
			c-0.283,1.125-0.639,2.232-1.131,3.307c-0.476,1.079-1.041,2.136-1.873,3.128c-0.502,0.6-1.396,0.679-1.996,0.176
			c-0.248-0.208-0.408-0.484-0.475-0.779c-0.279-1.263-0.297-2.462-0.222-3.638c0.058-1.18,0.252-2.327,0.518-3.457
			c0.271-1.128,0.625-2.236,1.114-3.312c0.473-1.079,1.043-2.135,1.889-3.123c0.511-0.599,1.41-0.669,2.009-0.158
			C447.383,54.01,447.539,54.279,447.604,54.564z"/>
		<path fill="#FF8B4B" d="M458.03,45.462c1.387,0.014,2.654,0.28,3.878,0.64c1.231,0.344,2.401,0.813,3.535,1.359
			c1.132,0.55,2.232,1.168,3.271,1.913c1.047,0.729,2.054,1.542,2.943,2.601c0.496,0.59,0.418,1.471-0.172,1.968
			c-0.27,0.226-0.6,0.333-0.926,0.327c-1.382-0.026-2.646-0.299-3.872-0.655c-1.23-0.341-2.402-0.809-3.541-1.343
			c-1.139-0.539-2.238-1.155-3.279-1.896c-1.047-0.727-2.051-1.545-2.935-2.616c-0.493-0.598-0.406-1.482,0.191-1.975
			C457.39,45.564,457.711,45.459,458.03,45.462z"/>
		<path fill="#FF8B4B" d="M457.437,39.241c0.954-0.898,1.991-1.527,3.057-2.06c1.062-0.548,2.163-0.964,3.288-1.296
			c1.127-0.328,2.274-0.585,3.464-0.708c1.183-0.139,2.395-0.189,3.683,0.021c0.771,0.127,1.293,0.854,1.167,1.625
			c-0.053,0.324-0.214,0.605-0.438,0.812c-0.961,0.884-1.999,1.508-3.063,2.043c-1.062,0.551-2.162,0.967-3.283,1.313
			c-1.124,0.341-2.271,0.6-3.459,0.725c-1.182,0.143-2.394,0.187-3.688-0.038c-0.772-0.135-1.291-0.871-1.156-1.644
			C457.063,39.719,457.219,39.445,457.437,39.241z"/>
		<path fill="#FF8B4B" d="M452.823,34.713c-0.149-1.456-0.029-2.826,0.188-4.164c0.201-1.343,0.533-2.645,0.948-3.919
			c0.418-1.273,0.908-2.524,1.531-3.732c0.607-1.213,1.302-2.397,2.257-3.498c0.5-0.577,1.375-0.639,1.951-0.139
			c0.279,0.242,0.438,0.576,0.471,0.917c0.134,1.452,0.009,2.819-0.205,4.158c-0.198,1.345-0.529,2.647-0.931,3.925
			c-0.406,1.278-0.896,2.529-1.516,3.737c-0.604,1.214-1.306,2.396-2.274,3.493c-0.507,0.575-1.384,0.629-1.958,0.122
			C453.013,35.373,452.858,35.047,452.823,34.713z"/>
		<path fill="#FF8B4B" d="M443.558,35.104c-1.212-0.894-2.184-1.931-3.067-3.019c-0.899-1.081-1.679-2.232-2.384-3.427
			c-0.701-1.197-1.339-2.433-1.856-3.74c-0.531-1.298-0.982-2.645-1.199-4.13c-0.109-0.751,0.409-1.449,1.161-1.56
			c0.377-0.055,0.743,0.05,1.024,0.261c1.201,0.9,2.169,1.94,3.054,3.028c0.901,1.079,1.683,2.23,2.397,3.417
			c0.714,1.191,1.353,2.426,1.872,3.732c0.534,1.297,0.979,2.646,1.184,4.138c0.104,0.755-0.424,1.453-1.179,1.556
			C444.194,35.411,443.837,35.308,443.558,35.104z"/>
		<path fill="#FF8B4B" d="M437.959,41.005c-1.526,0.111-2.962-0.043-4.368-0.296c-1.41-0.235-2.776-0.604-4.115-1.052
			c-1.338-0.454-2.652-0.979-3.923-1.635c-1.274-0.641-2.521-1.371-3.681-2.359c-0.578-0.491-0.647-1.356-0.156-1.934
			c0.25-0.293,0.601-0.455,0.956-0.479c1.521-0.098,2.957,0.063,4.363,0.313c1.409,0.233,2.777,0.6,4.119,1.036
			c1.343,0.441,2.658,0.964,3.93,1.619c1.275,0.638,2.521,1.373,3.677,2.375c0.573,0.497,0.636,1.367,0.137,1.942
			C438.651,40.819,438.308,40.979,437.959,41.005z"/>
		<path fill="#FF8B4B" d="M441.254,48.326c-0.716,1.125-1.575,2.01-2.489,2.807c-0.905,0.813-1.883,1.507-2.905,2.128
			c-1.025,0.616-2.088,1.169-3.226,1.604c-1.127,0.448-2.304,0.817-3.623,0.953c-0.774,0.08-1.467-0.482-1.547-1.257
			c-0.035-0.333,0.05-0.652,0.221-0.913c0.72-1.112,1.585-1.992,2.496-2.792c0.904-0.814,1.88-1.509,2.896-2.141
			c1.02-0.629,2.082-1.184,3.218-1.619c1.125-0.452,2.306-0.814,3.632-0.939c0.777-0.073,1.469,0.5,1.542,1.279
			C441.499,47.76,441.415,48.07,441.254,48.326z"/>
	</g>
	<path fill="#FF6A81" d="M369.92,28.234c-4.558,0.744-13.67,11.806-11.806,14.292c1.864,2.485,10.873,1.875,15.844,9.17
		c4.973,7.295,1.651,18.514,13.049,20.033c4.661,0.622,16.778-11.184,16.778-11.184s-11.185-2.462-13.671-10.551
		C387.629,41.905,385.145,25.749,369.92,28.234z"/>
	<path fill="#9578F0" d="M419.957,122.554c-6.113,1.911-3.863,27.935,8.697,30.447c3.108,0.621-1.324-14.992,6.836-26.248
		C436.733,125.039,424.928,121,419.957,122.554z"/>
	<path fill="#00D8D3" d="M388.498,138.611c-3.105,1.864,1.865,8.699-3.105,13.36c-4.971,4.66-13.359,8.388-9.632,16.776
		c3.729,8.389,12.737,9.01,12.737,9.01s-4.971-6.214,3.419-13.669c8.389-7.457,12.427-14.292,9.319-18.641
		C398.13,141.096,388.498,138.611,388.498,138.611z"/>
	<path fill="#FF6A81" d="M405.353,202.322c-4.226,1.491-5.592,9.32,0,12.427s9.941-0.311,8.078-6.213
		C411.566,202.633,410.634,200.458,405.353,202.322z"/>
	<path fill="#FFD500" d="M452.377,189.268c0,0-12.641-6.607-14.194-4.744c-2.151,2.582,2.933,14.375,2.933,14.375
		s-8.185,12.344-7.903,14.829c0.281,2.485,15.125,1.948,15.125,1.948s4.884,17.088,8.191,17.088c3.306,0,8.276-15.845,8.276-15.845
		s12.116-3.108,12.116-5.593c0-2.485-9.943-13.98-9.943-13.98s3.513-16.602,0.406-18.465
		C464.276,177.016,452.377,189.268,452.377,189.268z"/>
	<path fill="#00D8D3" d="M416.922,428.655c0,0-1.552,14.603,0,16.776c1.554,2.176,8.078,3.729,9.011,1.864
		c0.933-1.864,1.741-18.019,1.337-18.641C426.865,428.034,420.029,426.791,416.922,428.655z"/>
	<path fill="#FF6A81" d="M449.82,419.34c-1.259,1.102,7.456,15.317,3.418,21.387c-4.707,7.069-10.948,11.386-9.942,15.731
		c0.311,1.344,11.729,9.01,12.389,8.389c0.659-0.621,0.038-9.011,4.699-12.427c4.66-3.419,6.835-11.602,6.524-17.763
		c-0.311-6.16-1.243-14.165-2.175-15.134C463.801,418.555,452.306,417.164,449.82,419.34z"/>
	<path fill="#00D8D3" d="M442.365,371.709c-4.95,3.667-4.143,18.228,8.284,14.913C463.077,383.308,453.549,363.425,442.365,371.709z
		"/>
	<path fill="#9BCA3C" d="M474.419,392.212c-5.271,2.931-2.684,13.462,6.016,9.113C489.133,396.977,483.729,387.034,474.419,392.212z
		"/>
	<path fill="#FF6A81" d="M396.5,566.625c-0.105-0.277-0.214-0.556-0.328-0.83c-0.087-0.266-0.234-0.496-0.444-0.69
		c-0.007-0.009-0.014-0.018-0.022-0.026c-0.011-0.014-0.022-0.026-0.033-0.04c-0.024-0.027-0.049-0.058-0.073-0.085
		c-0.05-0.059-0.101-0.118-0.15-0.177c-0.158-0.172-0.346-0.292-0.563-0.363c-0.21-0.109-0.435-0.159-0.676-0.151l-0.465,0.063
		c-0.297,0.084-0.554,0.234-0.772,0.452c-0.049,0.057-0.096,0.112-0.146,0.17c-0.024,0.031-0.052,0.063-0.076,0.092
		c-0.012,0.014-0.024,0.026-0.035,0.04c-0.007,0.009-0.016,0.018-0.022,0.026c-0.208,0.194-0.355,0.425-0.442,0.69
		c-0.116,0.274-0.223,0.553-0.33,0.83c-0.112,0.42-0.112,0.842,0,1.263c0.113,0.402,0.316,0.751,0.611,1.048
		c0.16,0.124,0.319,0.247,0.48,0.372c0.37,0.213,0.77,0.321,1.198,0.322c0.328,0.013,0.632-0.055,0.915-0.204
		c0.295-0.096,0.551-0.259,0.764-0.49c0.295-0.297,0.498-0.646,0.611-1.048C396.613,567.467,396.613,567.045,396.5,566.625z"/>
	<path fill="#FF6A81" d="M450.546,334.265c0.001-0.05-0.002-0.098-0.007-0.148c-0.004-0.037-0.015-0.074-0.018-0.111
		c0-0.016,0.007-0.033,0.007-0.048c-0.004-0.298-0.056-0.598-0.104-0.891c-0.063-0.149-0.125-0.299-0.188-0.448
		c-0.099-0.126-0.196-0.252-0.293-0.379c-0.061-0.06-0.136-0.092-0.201-0.142c-0.374-0.478-0.843-0.882-1.383-1.143
		c-0.461-0.222-0.938-0.416-1.438-0.529c-0.526-0.12-1.066-0.181-1.6-0.24c-0.205,0.028-0.411,0.056-0.616,0.083
		c-0.302,0.071-0.564,0.209-0.788,0.414c-0.174,0.103-0.313,0.242-0.417,0.416c-0.203,0.224-0.342,0.487-0.413,0.789
		c-0.105,0.27-0.175,0.547-0.219,0.833c-0.069,0.475-0.144,0.947-0.104,1.427c0.079,0.972,0.305,1.872,0.793,2.725
		c0.035,0.063,0.073,0.125,0.113,0.184c0.22,0.331,0.494,0.663,0.852,0.853c0.096,0.04,0.189,0.08,0.285,0.12
		c0.184,0.108,0.384,0.162,0.599,0.163c0.236,0.032,0.459,0.063,0.696,0.048c0.439-0.027,0.906-0.081,1.328-0.226
		c0.412-0.142,0.843-0.315,1.21-0.556c0.258-0.168,0.5-0.367,0.738-0.56c0.042-0.035,0.085-0.071,0.125-0.109
		c0.139-0.128,0.308-0.364,0.413-0.521c0.028-0.042,0.047-0.075,0.067-0.122c0.113-0.249,0.216-0.5,0.303-0.758
		c0.041-0.096,0.096-0.183,0.128-0.284C450.504,334.838,450.537,334.542,450.546,334.265z"/>
	<path fill="#FF6A81" d="M476.048,126.17c-0.761-0.774-1.691-1.303-2.691-1.617c-0.375-0.227-0.766-0.423-1.217-0.603
		c-0.856-0.34-2.188-0.184-2.975,0.464c-0.063,0.036-0.137,0.052-0.199,0.095c-0.021,0.015-0.031,0.037-0.052,0.052
		c-2.008,0.717-3.508,2.602-4.071,4.619c-0.609,2.176-0.278,4.768,1.01,6.647c0.585,0.855,1.483,1.299,2.479,1.475
		c0.618,0.109,1.229,0.183,1.853,0.119c1.236-0.127,2.458-0.465,3.496-1.177c0.883-0.602,1.584-1.333,2.129-2.191
		c0.41-0.369,0.772-0.783,1.073-1.231C478.287,130.732,477.751,127.906,476.048,126.17z"/>
	<path fill="#00D8D3" d="M422.808,520.621c-0.603-1.472-1.564-2.701-2.967-3.5c-1.187-0.675-2.562-1.01-3.922-1.029
		c-2.743-0.042-5.53,1.271-6.984,3.641c-1.698,2.766-1.08,6.618,1.199,8.871c0.699,0.695,1.614,1.234,2.59,1.547
		c2.591,1.354,5.756,0.516,7.863-1.402C422.721,526.804,423.944,523.394,422.808,520.621z"/>
</g>
<g>
	<path opacity="0.13" fill="#5B2B64" d="M60.046,720.402c0,7.368,40.46,27.863,91.402,30.355
		c59.254,2.899,81.77-10.039,80.77-19.712c-0.757-7.342-28.821-23.982-79.823-23.982C101.392,707.063,60.046,713.036,60.046,720.402
		z"/>
	<g>
		<path fill="#FFE000" d="M140.143,506.476c-6.5,2.728-81.669,204.21-77.185,212.13c4.486,7.922,55.823,23.536,91.211,19.84
			c35.387-3.694,59.809-7.063,60.808-15.597C215.973,714.315,150.679,502.057,140.143,506.476z"/>
		<path fill="#FF6A81" d="M123.66,480.463c0,0-16.344-5.219-19.679,11.469c-2.895,14.476,15.548,13.299,15.548,13.299
			s-14.91,17.714,0.499,25.419c15.45,7.726,20.434-10.468,20.434-10.468s15.333,18.187,25.645,5.981
			c11.525-13.643-3.672-29.156-8.054-25.669c-4.383,3.49,20.329,10.773,22.781-4.236c2.565-15.699-14.728-12.93-14.728-12.93
			s11.396-10.993,5.212-22.457c-6.185-11.464-30.856,9.969-25.124,15.451c5.731,5.481,11.842-21.948-1.995-25.17
			C126.009,446.914,114.295,463.362,123.66,480.463z"/>
		<path fill="#73D80A" d="M133.361,568.955c0,6.917-5.599,12.516-12.516,12.516c-4.337,0-8.143-2.186-10.399-5.547
			c2.542-6.63,5.031-13.029,7.396-19.111c0.96-0.248,1.973-0.373,3.004-0.373C127.762,556.439,133.361,562.04,133.361,568.955z"/>
		<path fill="#73D80A" d="M200.117,719.144c0,5.564-2.383,10.578-6.187,14.043c-5.954,1.156-12.994,2.188-20.942,3.165
			c-6.453-3.04-10.915-9.599-10.915-17.208c0-10.507,8.516-19.04,19.022-19.04S200.117,708.637,200.117,719.144z"/>
		<circle fill="#F48243" cx="144.2" cy="546.536" r="11.173"/>
		<circle fill="#4DC8F4" cx="143.925" cy="587.094" r="5.794"/>
		<circle fill="#F48243" cx="157.243" cy="685.996" r="5.794"/>
		<path fill="#FFA8A8" d="M128.882,603.018c0,9.991-8.107,18.1-18.099,18.1c-5.955,0-11.234-2.863-14.542-7.29
			c3.521-9.582,7.094-19.183,10.613-28.479c1.262-0.303,2.578-0.444,3.929-0.444C120.774,584.903,128.882,593.009,128.882,603.018z"
			/>
		<circle fill="#4DC8F4" cx="123.189" cy="700.871" r="19.195"/>
		<circle fill="#FFFFFF" cx="171.017" cy="608.283" r="9.999"/>
		<circle fill="#FFFFFF" cx="82.67" cy="694.385" r="9.998"/>
		<path fill="#FFA8A8" d="M173.006,583.214c-1.759,1.049-3.821,1.636-6.009,1.636c-6.596,0-11.964-5.352-11.964-11.966
			c0-6.009,4.462-11.004,10.239-11.821C167.797,568.103,170.393,575.533,173.006,583.214z"/>
		<circle fill="#FF6A81" cx="100.464" cy="655.106" r="16.239"/>
		<circle fill="#FF6A81" cx="173.481" cy="658.393" r="16.24"/>
		<ellipse cx="119.946" cy="632.325" rx="3.243" ry="4.113"/>
		<ellipse cx="162.065" cy="632.325" rx="3.242" ry="4.113"/>
		<g>
			<path fill="#FFA8A8" d="M140.865,646.166c6.453,0.994,8.853,4.319,8.853,4.319c-2.49,1.529-5.795,2.524-9.884,2.275
				c-4.766-0.284-8.321-2.045-10.615-4.338C129.646,648.209,135.406,645.312,140.865,646.166z"/>
			<path d="M155.033,639.801c1.511,2.169-0.285,7.556-5.316,10.685c0,0-2.399-3.325-8.853-4.319
				c-5.458-0.854-11.219,2.043-11.646,2.257c-3.021-2.952-3.838-6.861-2.346-9.564c2.507-4.516,8.106,0,13.457,0
				C148.597,638.858,152.17,635.693,155.033,639.801z"/>
		</g>
		<path fill="#D74E61" d="M123.557,480.781c-3.998-0.861-8.321-0.827-11.982,0.862c-3.731,1.629-6.172,5.536-6.558,9.592
			c-0.269,0.99-0.231,1.979-0.427,2.959c-0.099,0.493-0.003,0.97-0.021,1.46c0,0.489-0.005,0.984,0.147,1.442
			c0.361,1.904,1.511,3.585,3.13,4.716c1.578,1.177,3.497,2.014,5.507,2.436c2.014,0.462,4.146,0.159,6.125,0.214l0.077,0.001
			c0.423,0.013,0.757,0.365,0.745,0.787c-0.005,0.182-0.073,0.347-0.182,0.476c-1.556,1.824-2.965,3.889-4.101,6.047
			c-0.557,1.087-1.061,2.203-1.46,3.353c-0.368,1.161-0.59,2.359-0.658,3.549c-0.167,2.355,0.014,4.734,1.188,6.76
			c1.085,2.068,3.017,3.629,5.088,4.919l0.009,0.005c0.156,0.098,0.205,0.302,0.107,0.458c-0.088,0.141-0.264,0.194-0.413,0.131
			c-2.318-0.981-4.594-2.493-6.014-4.788c-1.418-2.265-1.943-5.109-1.412-7.671c0.568-2.547,1.408-4.954,2.514-7.243
			c1.115-2.289,2.405-4.449,3.972-6.51l0.639,1.264c-2.222,0.221-4.313-0.444-6.417-0.823c-2.089-0.444-4.223-1.021-6.098-2.266
			c-1.868-1.222-3.319-3.236-3.802-5.46c-0.215-0.542-0.264-1.099-0.314-1.661c-0.033-0.558-0.172-1.134-0.106-1.685
			c0.12-1.097,0.165-2.241,0.58-3.257c0.359-1.033,0.689-2.065,1.262-3.009l0.717-1.456l0.88-1.37
			c1.251-1.746,2.813-3.393,4.813-4.342c1.96-0.995,4.151-1.453,6.309-1.49c2.167-0.036,4.306,0.268,6.357,0.968
			c0.174,0.059,0.266,0.248,0.207,0.422c-0.054,0.159-0.22,0.251-0.383,0.217L123.557,480.781z"/>
		<path fill="#D74E61" d="M169.999,514.857c-0.223-3.063-1.238-6.049-2.926-8.599c-0.842-1.268-1.813-2.471-2.964-3.455
			c-1.134-0.981-2.439-1.834-3.806-2.147c-1.286-0.343-2.925,0.494-1.873,1.38c0.953,0.948,2.474,1.538,3.904,1.971
			c2.929,0.838,6.08,1.141,9.096,0.639c2.986-0.486,5.928-1.971,7.412-4.58c0.734-1.286,1.128-2.732,1.266-4.214
			c0.027-0.755,0.081-1.501,0.135-2.25l-0.179-2.192c-0.436-2.854-2.214-5.342-4.987-6.433c-2.703-1.157-5.908-1.284-8.86-0.958
			c-0.389,0.045-0.741-0.23-0.788-0.62c-0.025-0.215,0.054-0.427,0.191-0.574c2.623-2.738,4.863-6.058,6.137-9.677
			c0.591-1.823,0.983-3.733,0.899-5.653c-0.118-1.899-0.517-3.824-1.487-5.479c-0.804-1.744-2.085-2.996-3.785-3.453
			c-1.683-0.485-3.604-0.175-5.404,0.344c-3.627,1.158-6.971,3.341-9.882,5.891c-1.45,1.296-2.799,2.707-3.952,4.252
			c-1.132,1.514-2.134,3.314-2.177,5.037c-0.001,0.855,0.363,1.538,1.012,1.962c0.634,0.449,1.165,0.258,1.762-0.274
			c1.168-1.158,1.849-3.071,2.351-4.865c0.975-3.684,1.056-7.67,0.188-11.375c-0.472-1.839-1.248-3.612-2.45-5.059
			c-1.203-1.439-2.851-2.5-4.707-2.999c-0.177-0.047-0.283-0.229-0.236-0.406c0.045-0.17,0.217-0.273,0.387-0.241
			c2,0.401,3.901,1.446,5.33,2.962c1.422,1.529,2.323,3.451,2.916,5.404c0.588,1.968,0.811,4.015,0.813,6.048
			c0.006,2.034-0.217,4.065-0.708,6.059c-0.239,0.995-0.545,1.986-0.991,2.939c-0.448,0.946-0.958,1.901-1.842,2.699
			c-0.47,0.361-1.003,0.759-1.732,0.812c-0.702,0.092-1.41-0.176-1.88-0.549c-1.002-0.698-1.542-2.016-1.436-3.14
			c0.064-1.128,0.418-2.148,0.894-3.063c0.469-0.924,1.007-1.792,1.606-2.609c1.196-1.638,2.58-3.111,4.065-4.466
			c2.986-2.675,6.334-5.031,10.229-6.384c1.938-0.619,4.101-1.071,6.259-0.453c2.219,0.5,3.848,2.514,4.467,4.422
			c0.865,1.872,1.163,3.933,1.339,5.95c0.08,2.043-0.246,4.071-0.802,6.024c-1.2,3.9-3.377,7.387-6.211,10.349l-0.595-1.194
			c3.241-0.399,6.524-0.277,9.661,0.924c3.172,1.052,5.785,4.186,6.163,7.578c0.049,0.835,0.096,1.675,0.1,2.502
			c-0.093,0.813-0.187,1.628-0.304,2.434c-0.299,1.616-0.89,3.221-1.837,4.587c-1.865,2.802-5.047,4.366-8.196,4.877
			c-3.178,0.533-6.438,0.321-9.535-0.54c-1.538-0.473-3.096-0.969-4.413-2.221c-0.306-0.323-0.656-0.777-0.634-1.424
			c-0.022-0.326,0.145-0.588,0.277-0.851c0.181-0.177,0.344-0.42,0.563-0.524c0.828-0.63,1.848-0.567,2.698-0.442
			c1.701,0.424,3.064,1.406,4.274,2.479c1.214,1.081,2.21,2.366,3.073,3.722c1.748,2.703,2.713,5.895,2.775,9.1
			c0.004,0.184-0.142,0.335-0.326,0.338c-0.177,0.004-0.324-0.132-0.337-0.307L169.999,514.857z"/>
	</g>
</g>
</svg>
